<?xml version="1.0" encoding="UTF-8"?>
<!DOCTYPE svg PUBLIC "-//W3C//DTD SVG 1.1//EN" "http://www.w3.org/Graphics/SVG/1.1/DTD/svg11.dtd">
<svg xmlns="http://www.w3.org/2000/svg" version="1.1" width="720px" height="692px" style="shape-rendering:geometricPrecision; text-rendering:geometricPrecision; image-rendering:optimizeQuality; fill-rule:evenodd; clip-rule:evenodd" xmlns:xlink="http://www.w3.org/1999/xlink">
<g><path style="opacity:1" fill="#120f0e" d="M 362.5,35.5 C 368.301,36.9114 374.301,37.9114 380.5,38.5C 384.162,38.7234 387.495,39.7234 390.5,41.5C 393.979,43.4031 397.646,45.0698 401.5,46.5C 406.322,47.9977 410.322,50.6644 413.5,54.5C 415.167,56.8333 417.167,58.8333 419.5,60.5C 420.419,63.0892 422.086,65.0892 424.5,66.5C 425.338,66.8417 425.672,67.5084 425.5,68.5C 425.427,70.0269 426.094,71.0269 427.5,71.5C 427.427,73.0269 428.094,74.0269 429.5,74.5C 429.157,76.4832 429.824,77.8166 431.5,78.5C 431.5,78.8333 431.5,79.1667 431.5,79.5C 432.256,83.767 433.589,87.767 435.5,91.5C 437.695,98.8765 438.695,106.543 438.5,114.5C 438.336,117.187 438.503,119.854 439,122.5C 439.383,123.056 439.883,123.389 440.5,123.5C 442.441,127.718 444.108,132.051 445.5,136.5C 445.723,140.162 446.723,143.495 448.5,146.5C 448.41,149.152 449.076,151.485 450.5,153.5C 450.742,157.479 451.742,161.146 453.5,164.5C 455.322,170.574 456.322,176.907 456.5,183.5C 456.5,191.5 456.5,199.5 456.5,207.5C 456.58,210.781 455.913,213.781 454.5,216.5C 452.655,217.995 452.322,219.662 453.5,221.5C 453.41,224.152 454.076,226.485 455.5,228.5C 455.41,231.152 456.076,233.485 457.5,235.5C 457.294,238.495 457.96,241.162 459.5,243.5C 460.913,246.219 461.58,249.219 461.5,252.5C 461.41,255.152 462.076,257.485 463.5,259.5C 464.341,261.379 464.675,263.379 464.5,265.5C 464.42,268.781 465.087,271.781 466.5,274.5C 468.127,280.942 469.127,287.608 469.5,294.5C 471.232,313.111 471.899,331.778 471.5,350.5C 470.501,358.495 469.501,366.495 468.5,374.5C 468.784,376.415 468.451,378.081 467.5,379.5C 465.261,384.216 463.595,389.216 462.5,394.5C 459.098,404.982 453.431,413.982 445.5,421.5C 444.5,421.833 443.833,422.5 443.5,423.5C 440.833,425.167 440.833,426.833 443.5,428.5C 443.5,428.833 443.5,429.167 443.5,429.5C 443.414,430.496 443.748,431.329 444.5,432C 447.022,433.341 449.689,434.174 452.5,434.5C 467.108,440.767 479.441,450.101 489.5,462.5C 489.833,463.5 490.5,464.167 491.5,464.5C 492.5,464.833 493.167,465.5 493.5,466.5C 494.08,468.749 495.413,470.415 497.5,471.5C 498.419,474.089 500.086,476.089 502.5,477.5C 503.167,477.5 503.5,477.833 503.5,478.5C 503.738,480.404 504.738,481.738 506.5,482.5C 506.738,484.404 507.738,485.738 509.5,486.5C 509.427,488.027 510.094,489.027 511.5,489.5C 511.427,491.027 512.094,492.027 513.5,492.5C 514.674,493.514 515.34,494.847 515.5,496.5C 515.427,498.027 516.094,499.027 517.5,499.5C 519.625,502.088 520.958,505.088 521.5,508.5C 521.651,512.466 523.151,515.8 526,518.5C 530.466,517.296 534.633,515.629 538.5,513.5C 538.833,513.5 539.167,513.5 539.5,513.5C 545.959,512.458 551.959,510.458 557.5,507.5C 557.833,507.5 558.167,507.5 558.5,507.5C 562.162,507.277 565.495,506.277 568.5,504.5C 572.162,504.277 575.495,503.277 578.5,501.5C 585.815,499.504 593.148,497.504 600.5,495.5C 600.833,495.5 601.167,495.5 601.5,495.5C 602.462,499.395 603.796,503.061 605.5,506.5C 606.194,511.915 607.86,516.915 610.5,521.5C 611.434,522.568 611.768,523.901 611.5,525.5C 612.527,531.915 614.527,537.915 617.5,543.5C 617.5,543.833 617.5,544.167 617.5,544.5C 618.194,549.915 619.86,554.915 622.5,559.5C 623.319,561.772 623.985,564.106 624.5,566.5C 624.861,570.915 626.194,574.915 628.5,578.5C 629.451,579.919 629.784,581.585 629.5,583.5C 629.528,586.916 630.528,589.916 632.5,592.5C 632.723,596.162 633.723,599.495 635.5,602.5C 636.918,607.754 637.918,613.087 638.5,618.5C 636.214,618.595 634.214,619.262 632.5,620.5C 630.786,621.738 628.786,622.405 626.5,622.5C 622.838,622.723 619.505,623.723 616.5,625.5C 609.223,628.812 601.556,631.145 593.5,632.5C 590.458,632.733 587.792,633.733 585.5,635.5C 584.432,636.434 583.099,636.768 581.5,636.5C 579.102,636.259 577.102,636.926 575.5,638.5C 574.292,639.234 572.959,639.567 571.5,639.5C 569.448,640.053 569.115,641.053 570.5,642.5C 571.511,646.112 571.678,649.779 571,653.5C 570.208,656.106 568.708,658.106 566.5,659.5C 564.973,659.427 563.973,660.094 563.5,661.5C 561.786,662.738 559.786,663.405 557.5,663.5C 551.007,663.881 544.507,664.214 538,664.5C 532.354,664.639 526.854,663.973 521.5,662.5C 519.427,660.42 517.093,658.754 514.5,657.5C 512.102,657.259 510.102,657.926 508.5,659.5C 507.791,660.404 506.791,660.737 505.5,660.5C 502.848,660.41 500.515,661.076 498.5,662.5C 497.432,663.434 496.099,663.768 494.5,663.5C 492.5,663.833 490.5,664.167 488.5,664.5C 488.232,666.099 488.566,667.432 489.5,668.5C 491.068,675.998 492.402,683.665 493.5,691.5C 491.167,691.5 488.833,691.5 486.5,691.5C 485.51,687.228 484.844,682.894 484.5,678.5C 484.044,672.939 483.044,667.606 481.5,662.5C 480.263,652.414 478.597,642.414 476.5,632.5C 476.85,616.634 476.183,600.967 474.5,585.5C 474.443,579.149 474.11,572.815 473.5,566.5C 473.813,562.958 473.479,559.625 472.5,556.5C 471.075,539.156 469.408,521.823 467.5,504.5C 466.419,499.868 468.086,498.035 472.5,499C 478.283,508.566 483.283,518.566 487.5,529C 497.782,526.3 508.116,523.466 518.5,520.5C 517.137,513.766 514.637,507.433 511,501.5C 496.215,476.381 476.381,456.215 451.5,441C 450.365,440.251 449.365,440.417 448.5,441.5C 453.055,451.058 456.055,461.058 457.5,471.5C 457.41,474.152 458.076,476.485 459.5,478.5C 461.463,489.559 462.463,500.725 462.5,512C 461.789,523.177 461.289,534.343 461,545.5C 465.896,549.215 469.396,553.881 471.5,559.5C 471.5,563.5 471.5,567.5 471.5,571.5C 466.525,586.331 456.191,592.498 440.5,590C 425.597,583.692 420.097,572.526 424,556.5C 429.192,547.517 436.692,541.85 446.5,539.5C 448.016,531.22 448.682,522.72 448.5,514C 448.499,507.99 448.166,502.157 447.5,496.5C 447.5,496.167 447.5,495.833 447.5,495.5C 447.171,487.536 445.838,479.869 443.5,472.5C 443.167,470.5 442.833,468.5 442.5,466.5C 441.91,465.234 441.41,463.901 441,462.5C 440.5,473.495 440.333,484.495 440.5,495.5C 437.425,497.048 434.091,498.048 430.5,498.5C 427.833,498.5 425.167,498.5 422.5,498.5C 422.263,499.791 422.596,500.791 423.5,501.5C 424.793,503.296 426.293,504.963 428,506.5C 428.667,507.833 428.667,509.167 428,510.5C 413,524.167 398.667,538.5 385,553.5C 386.177,599.477 386.677,645.477 386.5,691.5C 384.5,691.5 382.5,691.5 380.5,691.5C 380.663,649.825 380.163,608.159 379,566.5C 378.809,564.292 378.309,562.292 377.5,560.5C 354.554,549.682 330.888,540.849 306.5,534C 305.282,532.562 304.615,530.895 304.5,529C 305.345,524.964 306.678,521.131 308.5,517.5C 309.404,516.791 309.737,515.791 309.5,514.5C 307.901,514.232 306.568,514.566 305.5,515.5C 295.524,517.131 285.524,518.298 275.5,519C 268.93,504.697 262.263,490.531 255.5,476.5C 255.719,475.325 255.386,474.325 254.5,473.5C 253.534,475.396 253.201,477.396 253.5,479.5C 252.363,488.079 251.696,496.745 251.5,505.5C 250.834,510.489 250.501,515.656 250.5,521C 250.421,527.563 250.921,534.063 252,540.5C 257.363,544.698 262.196,549.364 266.5,554.5C 269.558,559.946 272.058,565.613 274,571.5C 274.504,581.906 276.337,591.906 279.5,601.5C 279.289,606.044 276.955,608.71 272.5,609.5C 269.482,609.665 266.482,609.498 263.5,609C 262.667,608.167 261.833,607.333 261,606.5C 260.908,600.935 261.408,595.435 262.5,590C 262.396,580.477 259.896,571.644 255,563.5C 253.242,561.235 251.075,559.568 248.5,558.5C 248.44,557.957 248.107,557.624 247.5,557.5C 246.197,560.645 246.197,563.645 247.5,566.5C 248.644,608.002 248.644,649.669 247.5,691.5C 245.5,691.5 243.5,691.5 241.5,691.5C 241.5,683.5 241.5,675.5 241.5,667.5C 242.829,640.664 242.829,613.664 241.5,586.5C 240.893,586.624 240.56,586.957 240.5,587.5C 239.766,588.708 239.433,590.041 239.5,591.5C 239.672,592.492 239.338,593.158 238.5,593.5C 236,596.66 234.667,600.327 234.5,604.5C 234.371,606.216 234.038,607.883 233.5,609.5C 230.786,616.096 229.453,623.096 229.5,630.5C 228.5,639.833 227.5,649.167 226.5,658.5C 228.139,663.721 229.139,669.054 229.5,674.5C 229.713,677.527 229.047,680.193 227.5,682.5C 225.603,684.698 224.603,687.364 224.5,690.5C 224.5,690.833 224.5,691.167 224.5,691.5C 219.833,691.5 215.167,691.5 210.5,691.5C 213.47,690.347 216.137,688.68 218.5,686.5C 219.885,685.053 219.552,684.053 217.5,683.5C 215.833,682.167 214.167,680.833 212.5,679.5C 210.903,676.681 210.403,673.681 211,670.5C 215.421,668.894 217.754,670.561 218,675.5C 219.019,676.687 220.186,677.687 221.5,678.5C 222.657,675.216 222.824,671.882 222,668.5C 220.628,665.382 219.462,662.216 218.5,659C 208.545,658.139 198.879,658.972 189.5,661.5C 188.167,661.5 186.833,661.5 185.5,661.5C 185.279,674.235 190.279,684.235 200.5,691.5C 197.167,691.5 193.833,691.5 190.5,691.5C 189.833,690.167 188.833,689.167 187.5,688.5C 186.094,688.027 185.427,687.027 185.5,685.5C 183.48,680.424 181.48,675.424 179.5,670.5C 178.419,667.373 177.753,664.04 177.5,660.5C 176.951,654.626 175.951,648.959 174.5,643.5C 173.179,630.598 173.179,617.598 174.5,604.5C 175.879,598.383 176.546,592.05 176.5,585.5C 177.957,580.402 178.624,575.069 178.5,569.5C 179.011,561.892 180.344,554.559 182.5,547.5C 183.924,545.485 184.59,543.152 184.5,540.5C 186.277,537.495 187.277,534.162 187.5,530.5C 190.181,527.808 191.514,524.475 191.5,520.5C 191.5,520.167 191.5,519.833 191.5,519.5C 193.655,517.383 194.655,514.716 194.5,511.5C 196.213,510.365 196.88,508.698 196.5,506.5C 196.971,504.421 197.637,502.421 198.5,500.5C 200.213,499.365 200.88,497.698 200.5,495.5C 202.213,494.365 202.88,492.698 202.5,490.5C 202.893,488.716 203.559,487.05 204.5,485.5C 205.906,485.027 206.573,484.027 206.5,482.5C 206.557,481.391 206.89,480.391 207.5,479.5C 208.906,479.027 209.573,478.027 209.5,476.5C 209.66,474.847 210.326,473.514 211.5,472.5C 213.587,471.415 214.92,469.749 215.5,467.5C 217.404,467.262 218.738,466.262 219.5,464.5C 221.404,464.262 222.738,463.262 223.5,461.5C 225.027,461.573 226.027,460.906 226.5,459.5C 226.842,458.662 227.508,458.328 228.5,458.5C 232.449,457.775 235.949,456.109 239,453.5C 239.688,452.668 239.521,452.002 238.5,451.5C 236.929,450.691 235.262,450.357 233.5,450.5C 230.515,449.674 227.849,448.341 225.5,446.5C 224.738,444.738 223.404,443.738 221.5,443.5C 221.027,442.094 220.027,441.427 218.5,441.5C 218.027,440.094 217.027,439.427 215.5,439.5C 214.089,437.086 212.089,435.419 209.5,434.5C 208.415,432.413 206.749,431.08 204.5,430.5C 204.167,429.833 203.833,429.167 203.5,428.5C 202.5,426.833 201.167,425.5 199.5,424.5C 198.5,424.167 197.833,423.5 197.5,422.5C 197.446,420.368 196.446,419.035 194.5,418.5C 194.13,415.733 192.796,413.733 190.5,412.5C 190.249,410.83 189.582,409.33 188.5,408C 183.511,407.501 178.511,407.334 173.5,407.5C 168.88,407.26 164.547,406.26 160.5,404.5C 158.898,402.926 156.898,402.259 154.5,402.5C 154.167,402.5 153.833,402.5 153.5,402.5C 153.027,401.094 152.027,400.427 150.5,400.5C 148.847,400.34 147.514,399.674 146.5,398.5C 146.027,397.094 145.027,396.427 143.5,396.5C 142.738,394.738 141.404,393.738 139.5,393.5C 138.5,393.167 137.833,392.5 137.5,391.5C 136.833,390.167 135.833,389.167 134.5,388.5C 133.5,388.167 132.833,387.5 132.5,386.5C 132.446,384.368 131.446,383.035 129.5,382.5C 129.25,380.326 128.25,378.659 126.5,377.5C 124.707,375.574 123.707,373.241 123.5,370.5C 123.072,367.215 122.072,364.215 120.5,361.5C 117.128,350.565 116.795,339.565 119.5,328.5C 121.31,325.855 122.31,322.855 122.5,319.5C 124.262,318.738 125.262,317.404 125.5,315.5C 127.749,314.92 129.415,313.587 130.5,311.5C 131.78,310.069 133.447,309.402 135.5,309.5C 137.5,309.5 139.5,309.5 141.5,309.5C 141.737,308.209 141.404,307.209 140.5,306.5C 136.659,300.151 133.325,293.484 130.5,286.5C 129.624,282.418 127.957,278.751 125.5,275.5C 123.935,273.491 122.935,271.157 122.5,268.5C 122.598,266.447 121.931,264.78 120.5,263.5C 118.707,261.574 117.707,259.241 117.5,256.5C 117.267,253.458 116.267,250.792 114.5,248.5C 113.463,247.07 112.796,245.403 112.5,243.5C 112.88,241.302 112.213,239.635 110.5,238.5C 110.277,234.838 109.277,231.505 107.5,228.5C 107.59,225.848 106.924,223.515 105.5,221.5C 105.416,217.163 104.416,213.163 102.5,209.5C 101.527,207.052 101.194,204.385 101.5,201.5C 101.5,193.167 101.5,184.833 101.5,176.5C 103.585,174.316 104.585,171.649 104.5,168.5C 105.043,168.44 105.376,168.107 105.5,167.5C 104.675,166.614 103.675,166.281 102.5,166.5C 96.4995,166.168 91.1661,167.834 86.5,171.5C 84.8561,171.714 83.3561,171.38 82,170.5C 81.5045,168.527 81.3379,166.527 81.5,164.5C 81.8925,162.716 82.5592,161.05 83.5,159.5C 84.9063,159.027 85.573,158.027 85.5,156.5C 85.3284,155.508 85.6618,154.842 86.5,154.5C 88.5869,153.415 89.9202,151.749 90.5,149.5C 92.1667,148.5 93.5,147.167 94.5,145.5C 96.4044,145.262 97.7377,144.262 98.5,142.5C 100.027,142.573 101.027,141.906 101.5,140.5C 104.152,140.59 106.485,139.924 108.5,138.5C 111.167,138.5 113.833,138.5 116.5,138.5C 116.767,132.162 117.1,125.829 117.5,119.5C 117.42,116.219 118.087,113.219 119.5,110.5C 121.411,106.767 122.744,102.767 123.5,98.5C 124.326,95.5152 125.659,92.8485 127.5,90.5C 129.408,89.5144 130.408,87.8477 130.5,85.5C 131.906,85.0269 132.573,84.0269 132.5,82.5C 134.914,81.0892 136.581,79.0892 137.5,76.5C 138.833,74.5 140.5,72.8333 142.5,71.5C 145.089,70.5806 147.089,68.914 148.5,66.5C 150.027,66.573 151.027,65.9063 151.5,64.5C 153.027,64.573 154.027,63.9063 154.5,62.5C 157.088,60.4082 160.088,59.0749 163.5,58.5C 167.533,57.9751 171.2,56.6418 174.5,54.5C 175.919,53.5489 177.585,53.2155 179.5,53.5C 182.237,53.5987 184.904,53.2653 187.5,52.5C 187.833,52.5 188.167,52.5 188.5,52.5C 188.5,54.5 188.5,56.5 188.5,58.5C 187.101,59.8897 185.434,60.8897 183.5,61.5C 181.596,61.7376 180.262,62.7376 179.5,64.5C 176.874,66.8235 174.207,69.1568 171.5,71.5C 170.094,71.9731 169.427,72.9731 169.5,74.5C 169.167,75.5 168.5,76.1667 167.5,76.5C 166.094,76.9731 165.427,77.9731 165.5,79.5C 163.461,80.911 162.461,82.911 162.5,85.5C 161.086,87.0439 160.753,88.7106 161.5,90.5C 162.298,90.0431 162.631,89.3764 162.5,88.5C 162.833,88.5 163.167,88.5 163.5,88.5C 165.749,87.9202 167.415,86.5869 168.5,84.5C 170.027,84.573 171.027,83.9063 171.5,82.5C 172.391,81.8902 173.391,81.5569 174.5,81.5C 178.165,81.4982 181.165,80.1648 183.5,77.5C 184.93,76.4625 186.597,75.7959 188.5,75.5C 192.165,75.4982 195.165,74.1648 197.5,71.5C 199.698,71.8799 201.365,71.2132 202.5,69.5C 207.461,69.1758 211.794,67.5091 215.5,64.5C 219.915,64.1394 223.915,62.8061 227.5,60.5C 235.767,58.4111 243.767,55.7444 251.5,52.5C 257.433,51.4078 263.1,49.7412 268.5,47.5C 271.152,47.5905 273.485,46.9238 275.5,45.5C 276.568,44.5655 277.901,44.2322 279.5,44.5C 282.495,44.7062 285.162,44.0395 287.5,42.5C 291.042,41.3254 294.709,40.6587 298.5,40.5C 307.079,39.8904 315.412,38.5571 323.5,36.5C 336.416,34.4029 349.416,34.0695 362.5,35.5 Z"/></g>
<g><path style="opacity:1" fill="#9f9f9f" d="M 362.5,35.5 C 368.835,35.2375 374.835,36.2375 380.5,38.5C 374.301,37.9114 368.301,36.9114 362.5,35.5 Z"/></g>
<g><path style="opacity:1" fill="#6f6f6f" d="M 323.5,36.5 C 315.412,38.5571 307.079,39.8904 298.5,40.5C 306.527,38.0653 314.86,36.732 323.5,36.5 Z"/></g>
<g><path style="opacity:1" fill="#575538" d="M 334.5,42.5 C 344.658,41.3415 354.992,41.1748 365.5,42C 369.133,42.1489 372.466,42.9823 375.5,44.5C 361.905,42.7465 348.238,42.0799 334.5,42.5 Z"/></g>
<g><path style="opacity:1" fill="#888887" d="M 287.5,42.5 C 285.162,44.0395 282.495,44.7062 279.5,44.5C 281.905,43.2318 284.572,42.5651 287.5,42.5 Z"/></g>
<g><path style="opacity:1" fill="#929292" d="M 390.5,41.5 C 394.852,41.8457 398.519,43.5124 401.5,46.5C 397.646,45.0698 393.979,43.4031 390.5,41.5 Z"/></g>
<g><path style="opacity:1" fill="#9d996c" d="M 321.5,43.5 C 314.407,45.4619 307.073,46.7952 299.5,47.5C 306.501,45.0353 313.834,43.702 321.5,43.5 Z"/></g>
<g><path style="opacity:1" fill="#f9efa2" d="M 334.5,42.5 C 348.238,42.0799 361.905,42.7465 375.5,44.5C 377.698,44.8751 379.698,45.5418 381.5,46.5C 386.913,49.8557 392.913,52.189 399.5,53.5C 407.715,57.7121 414.382,63.7121 419.5,71.5C 419.5,71.8333 419.5,72.1667 419.5,72.5C 414.419,69.2928 409.086,66.6261 403.5,64.5C 403.389,63.8826 403.056,63.3826 402.5,63C 398.553,61.5162 394.553,60.3495 390.5,59.5C 389.833,59.5 389.167,59.5 388.5,59.5C 386.22,57.7773 383.553,57.1107 380.5,57.5C 380.389,56.8826 380.056,56.3826 379.5,56C 360.741,53.3871 342.075,52.8871 323.5,54.5C 298.595,55.2948 274.262,58.9615 250.5,65.5C 239.141,67.4127 228.141,70.0793 217.5,73.5C 215.883,74.038 214.216,74.3713 212.5,74.5C 213.694,73.7281 214.694,72.7281 215.5,71.5C 217.421,70.6373 219.421,69.9707 221.5,69.5C 224.152,69.5905 226.485,68.9238 228.5,67.5C 232.767,66.7444 236.767,65.411 240.5,63.5C 243.939,61.7957 247.605,60.4624 251.5,59.5C 255.162,59.2766 258.495,58.2766 261.5,56.5C 273.767,51.9785 286.434,48.9785 299.5,47.5C 307.073,46.7952 314.407,45.4619 321.5,43.5C 325.768,42.6274 330.102,42.2941 334.5,42.5 Z"/></g>
<g><path style="opacity:1" fill="#777777" d="M 275.5,45.5 C 273.485,46.9238 271.152,47.5905 268.5,47.5C 270.515,46.0762 272.848,45.4095 275.5,45.5 Z"/></g>
<g><path style="opacity:1" fill="#d7d195" d="M 381.5,46.5 C 388.231,47.2078 394.231,49.5411 399.5,53.5C 392.913,52.189 386.913,49.8557 381.5,46.5 Z"/></g>
<g><path style="opacity:1" fill="#666665" d="M 268.5,47.5 C 263.1,49.7412 257.433,51.4078 251.5,52.5C 256.79,49.8508 262.457,48.1841 268.5,47.5 Z"/></g>
<g><path style="opacity:1" fill="#6f6f6f" d="M 187.5,52.5 C 184.904,53.2653 182.237,53.5987 179.5,53.5C 181.487,52.6568 183.654,51.9902 186,51.5C 186.765,51.5699 187.265,51.9033 187.5,52.5 Z"/></g>
<g><path style="opacity:1" fill="#fddc82" d="M 323.5,54.5 C 342.075,52.8871 360.741,53.3871 379.5,56C 380.056,56.3826 380.389,56.8826 380.5,57.5C 361.622,54.7623 342.622,53.7623 323.5,54.5 Z"/></g>
<g><path style="opacity:1" fill="#a1a1a1" d="M 413.5,54.5 C 416.5,55.5 418.5,57.5 419.5,60.5C 417.167,58.8333 415.167,56.8333 413.5,54.5 Z"/></g>
<g><path style="opacity:1" fill="#666666" d="M 174.5,54.5 C 171.2,56.6418 167.533,57.9751 163.5,58.5C 166.8,56.3582 170.467,55.0249 174.5,54.5 Z"/></g>
<g><path style="opacity:1" fill="#727272" d="M 188.5,52.5 C 190.994,54.594 190.994,56.594 188.5,58.5C 188.5,56.5 188.5,54.5 188.5,52.5 Z"/></g>
<g><path style="opacity:1" fill="#fe9a2b" d="M 388.5,59.5 C 389.167,59.5 389.833,59.5 390.5,59.5C 394.522,61.7339 398.856,63.4005 403.5,64.5C 409.086,66.6261 414.419,69.2928 419.5,72.5C 419.833,73.5 420.5,74.1667 421.5,74.5C 422.674,75.5137 423.34,76.847 423.5,78.5C 423.357,80.2624 423.691,81.9291 424.5,83.5C 413.234,102.433 397.567,116.433 377.5,125.5C 377.167,125 376.833,124.5 376.5,124C 380.582,115.249 382.749,106.082 383,96.5C 381.333,95.1667 379.667,95.1667 378,96.5C 367.686,112.254 353.52,123.088 335.5,129C 327.003,131.958 318.336,134.291 309.5,136C 287.105,137.733 264.772,140.066 242.5,143C 230.231,144.42 219.064,148.587 209,155.5C 204.961,163.73 204.461,172.064 207.5,180.5C 207.5,181.167 207.5,181.833 207.5,182.5C 208.005,196.847 208.671,211.181 209.5,225.5C 196.101,237.358 180.434,243.858 162.5,245C 157.896,240.397 154.062,235.23 151,229.5C 144.728,217.228 139.395,204.562 135,191.5C 132.224,189.86 130.224,190.527 129,193.5C 128.041,203.901 128.875,214.068 131.5,224C 131.167,225.167 130.833,226.333 130.5,227.5C 122.338,217.183 115.171,206.183 109,194.5C 107.71,190.27 107.21,185.936 107.5,181.5C 109.332,178.235 111.165,174.901 113,171.5C 113.796,168.961 113.629,166.628 112.5,164.5C 109.66,162.777 106.66,161.443 103.5,160.5C 99.5575,160.125 95.8909,159.125 92.5,157.5C 95.8333,154.833 98.8333,151.833 101.5,148.5C 104.918,148.076 107.918,146.742 110.5,144.5C 114.167,144.5 117.833,144.5 121.5,144.5C 122.356,152.193 124.356,159.526 127.5,166.5C 128.978,166.762 130.311,166.429 131.5,165.5C 134.255,160.828 136.255,155.828 137.5,150.5C 140.992,154.825 144.992,158.658 149.5,162C 153.951,163.974 158.618,164.807 163.5,164.5C 162.504,155.496 159.504,147.163 154.5,139.5C 161.15,132.202 166.816,124.202 171.5,115.5C 165.83,115.215 160.497,116.715 155.5,120C 148.687,124.815 142.52,130.315 137,136.5C 136.496,127.186 137.996,118.186 141.5,109.5C 140.635,108.417 139.635,108.251 138.5,109C 131.808,116.559 126.808,125.059 123.5,134.5C 123.701,128.491 124.034,122.491 124.5,116.5C 126.377,111.848 128.377,107.182 130.5,102.5C 131.156,100.547 131.489,98.5466 131.5,96.5C 134.622,94.8743 136.288,92.2076 136.5,88.5C 136.738,86.5956 137.738,85.2623 139.5,84.5C 143.167,81.5 146.5,78.1667 149.5,74.5C 150.817,74.179 152.151,73.8457 153.5,73.5C 154.647,73.8178 155.481,74.4844 156,75.5C 155.43,78.7502 154.93,82.0836 154.5,85.5C 150.881,90.4839 149.381,96.1506 150,102.5C 154.865,105.587 158.698,104.587 161.5,99.5C 165.1,97.5698 168.1,94.9031 170.5,91.5C 171.899,90.1103 173.566,89.1103 175.5,88.5C 179.836,88.1631 183.503,86.4965 186.5,83.5C 187.93,82.4625 189.597,81.7959 191.5,81.5C 196.848,80.8714 202.014,79.5381 207,77.5C 208.226,77.6448 209.393,77.9781 210.5,78.5C 212.809,76.6466 215.142,74.98 217.5,73.5C 228.141,70.0793 239.141,67.4127 250.5,65.5C 264.961,63.7078 279.294,61.2078 293.5,58C 325.24,54.3186 356.906,54.8186 388.5,59.5 Z"/></g>
<g><path style="opacity:1" fill="#636362" d="M 251.5,52.5 C 243.767,55.7444 235.767,58.4111 227.5,60.5C 235.052,56.7365 243.052,54.0699 251.5,52.5 Z"/></g>
<g><path style="opacity:1" fill="#979267" d="M 261.5,56.5 C 258.495,58.2766 255.162,59.2766 251.5,59.5C 254.505,57.7234 257.838,56.7234 261.5,56.5 Z"/></g>
<g><path style="opacity:1" fill="#f7af48" d="M 323.5,54.5 C 342.622,53.7623 361.622,54.7623 380.5,57.5C 383.553,57.1107 386.22,57.7773 388.5,59.5C 356.906,54.8186 325.24,54.3186 293.5,58C 279.294,61.2078 264.961,63.7078 250.5,65.5C 274.262,58.9615 298.595,55.2948 323.5,54.5 Z"/></g>
<g><path style="opacity:1" fill="#fbcf72" d="M 390.5,59.5 C 394.553,60.3495 398.553,61.5162 402.5,63C 403.056,63.3826 403.389,63.8826 403.5,64.5C 398.856,63.4005 394.522,61.7339 390.5,59.5 Z"/></g>
<g><path style="opacity:1" fill="#acacac" d="M 183.5,61.5 C 182.738,63.2624 181.404,64.2624 179.5,64.5C 180.262,62.7376 181.596,61.7376 183.5,61.5 Z"/></g>
<g><path style="opacity:1" fill="#6b6b6a" d="M 227.5,60.5 C 223.915,62.8061 219.915,64.1394 215.5,64.5C 219.085,62.1939 223.085,60.8606 227.5,60.5 Z"/></g>
<g><path style="opacity:1" fill="#8f8e8f" d="M 154.5,62.5 C 154.027,63.9063 153.027,64.573 151.5,64.5C 151.973,63.0937 152.973,62.427 154.5,62.5 Z"/></g>
<g><path style="opacity:1" fill="#a26d30" d="M 166.5,67.5 C 166.179,65.9519 165.179,65.2852 163.5,65.5C 165.688,63.2445 168.354,62.4112 171.5,63C 169.963,64.7073 168.296,66.2073 166.5,67.5 Z"/></g>
<g><path style="opacity:1" fill="#bfbb85" d="M 240.5,63.5 C 236.767,65.411 232.767,66.7444 228.5,67.5C 232.085,65.1939 236.085,63.8606 240.5,63.5 Z"/></g>
<g><path style="opacity:1" fill="#808080" d="M 151.5,64.5 C 151.027,65.9063 150.027,66.573 148.5,66.5C 148.973,65.0937 149.973,64.427 151.5,64.5 Z"/></g>
<g><path style="opacity:1" fill="#7d7d7d" d="M 419.5,60.5 C 421.914,61.9108 423.581,63.9108 424.5,66.5C 422.086,65.0892 420.419,63.0892 419.5,60.5 Z"/></g>
<g><path style="opacity:1" fill="#626262" d="M 215.5,64.5 C 211.794,67.5091 207.461,69.1758 202.5,69.5C 206.522,67.2661 210.856,65.5995 215.5,64.5 Z"/></g>
<g><path style="opacity:1" fill="#959166" d="M 228.5,67.5 C 226.485,68.9238 224.152,69.5905 221.5,69.5C 223.515,68.0762 225.848,67.4095 228.5,67.5 Z"/></g>
<g><path style="opacity:1" fill="#6e6e6e" d="M 148.5,66.5 C 147.089,68.914 145.089,70.5806 142.5,71.5C 143.911,69.086 145.911,67.4194 148.5,66.5 Z"/></g>
<g><path style="opacity:1" fill="#e79331" d="M 163.5,65.5 C 165.179,65.2852 166.179,65.9519 166.5,67.5C 161.482,72.8825 157.482,78.8825 154.5,85.5C 154.93,82.0836 155.43,78.7502 156,75.5C 155.481,74.4844 154.647,73.8178 153.5,73.5C 152.151,73.8457 150.817,74.179 149.5,74.5C 153.138,70.0076 157.805,67.0076 163.5,65.5 Z"/></g>
<g><path style="opacity:1" fill="#6a6a6a" d="M 202.5,69.5 C 201.365,71.2132 199.698,71.8799 197.5,71.5C 198.93,70.4625 200.597,69.7959 202.5,69.5 Z"/></g>
<g><path style="opacity:1" fill="#767676" d="M 425.5,68.5 C 426.906,68.9731 427.573,69.9731 427.5,71.5C 426.094,71.0269 425.427,70.0269 425.5,68.5 Z"/></g>
<g><path style="opacity:1" fill="#acacac" d="M 171.5,71.5 C 171.573,73.0269 170.906,74.0269 169.5,74.5C 169.427,72.9731 170.094,71.9731 171.5,71.5 Z"/></g>
<g><path style="opacity:1" fill="#565655" d="M 197.5,71.5 C 195.165,74.1648 192.165,75.4982 188.5,75.5C 191.088,73.3754 194.088,72.0421 197.5,71.5 Z"/></g>
<g><path style="opacity:1" fill="#8a612c" d="M 419.5,71.5 C 420.906,71.9731 421.573,72.9731 421.5,74.5C 420.5,74.1667 419.833,73.5 419.5,72.5C 419.5,72.1667 419.5,71.8333 419.5,71.5 Z"/></g>
<g><path style="opacity:1" fill="#939390" d="M 427.5,71.5 C 428.906,71.9731 429.573,72.9731 429.5,74.5C 428.094,74.0269 427.427,73.0269 427.5,71.5 Z"/></g>
<g><path style="opacity:1" fill="#ac9a65" d="M 215.5,71.5 C 214.694,72.7281 213.694,73.7281 212.5,74.5C 209.598,75.5778 206.598,76.2444 203.5,76.5C 207.203,74.3213 211.203,72.6546 215.5,71.5 Z"/></g>
<g><path style="opacity:1" fill="#e49c3f" d="M 217.5,73.5 C 215.142,74.98 212.809,76.6466 210.5,78.5C 209.393,77.9781 208.226,77.6448 207,77.5C 202.014,79.5381 196.848,80.8714 191.5,81.5C 195.203,79.3213 199.203,77.6546 203.5,76.5C 206.598,76.2444 209.598,75.5778 212.5,74.5C 214.216,74.3713 215.883,74.038 217.5,73.5 Z"/></g>
<g><path style="opacity:1" fill="#b8782e" d="M 149.5,74.5 C 146.5,78.1667 143.167,81.5 139.5,84.5C 141.833,80.1667 145.167,76.8333 149.5,74.5 Z"/></g>
<g><path style="opacity:1" fill="#696969" d="M 429.5,74.5 C 430.674,75.5137 431.34,76.847 431.5,78.5C 429.824,77.8166 429.157,76.4832 429.5,74.5 Z"/></g>
<g><path style="opacity:1" fill="#9f9f9f" d="M 167.5,76.5 C 167.573,78.0269 166.906,79.0269 165.5,79.5C 165.427,77.9731 166.094,76.9731 167.5,76.5 Z"/></g>
<g><path style="opacity:1" fill="#6e6e6e" d="M 137.5,76.5 C 136.581,79.0892 134.914,81.0892 132.5,82.5C 133.419,79.9108 135.086,77.9108 137.5,76.5 Z"/></g>
<g><path style="opacity:1" fill="#525252" d="M 183.5,77.5 C 181.165,80.1648 178.165,81.4982 174.5,81.5C 177.088,79.4082 180.088,78.0749 183.5,77.5 Z"/></g>
<g><path style="opacity:1" fill="#c7c8c7" d="M 167.5,80.5 C 168.833,81.1667 168.833,81.1667 167.5,80.5 Z"/></g>
<g><path style="opacity:1" fill="#939393" d="M 165.5,79.5 C 165.008,81.8185 164.008,83.8185 162.5,85.5C 162.461,82.911 163.461,80.911 165.5,79.5 Z"/></g>
<g><path style="opacity:1" fill="#8e8e8e" d="M 171.5,82.5 C 171.027,83.9063 170.027,84.573 168.5,84.5C 168.973,83.0937 169.973,82.427 171.5,82.5 Z"/></g>
<g><path style="opacity:1" fill="#787878" d="M 132.5,82.5 C 132.573,84.0269 131.906,85.0269 130.5,85.5C 130.427,83.9731 131.094,82.9731 132.5,82.5 Z"/></g>
<g><path style="opacity:1" fill="#737473" d="M 431.5,79.5 C 433.806,83.0845 435.139,87.0845 435.5,91.5C 433.589,87.767 432.256,83.767 431.5,79.5 Z"/></g>
<g><path style="opacity:1" fill="#616161" d="M 168.5,84.5 C 167.415,86.5869 165.749,87.9202 163.5,88.5C 164.585,86.4131 166.251,85.0798 168.5,84.5 Z"/></g>
<g><path style="opacity:1" fill="#b1722c" d="M 186.5,83.5 C 183.503,86.4965 179.836,88.1631 175.5,88.5C 178.74,86.049 182.407,84.3824 186.5,83.5 Z"/></g>
<g><path style="opacity:1" fill="#be6601" d="M 423.5,78.5 C 425.065,80.5093 426.065,82.8427 426.5,85.5C 426.918,92.1505 428.252,98.4838 430.5,104.5C 430.502,113.138 432.169,121.471 435.5,129.5C 430.686,132.409 425.686,135.075 420.5,137.5C 419.438,138.425 419.438,139.425 420.5,140.5C 416.967,138.767 413.3,137.434 409.5,136.5C 398.218,141.932 386.552,146.598 374.5,150.5C 370.475,150.63 366.809,151.63 363.5,153.5C 353.753,154.892 344.086,156.558 334.5,158.5C 329.586,158.362 324.919,159.028 320.5,160.5C 315.105,160.267 309.772,160.6 304.5,161.5C 294.665,161.917 284.999,162.584 275.5,163.5C 255.148,163.535 234.815,163.369 214.5,163C 207.918,166.918 205.585,172.752 207.5,180.5C 204.461,172.064 204.961,163.73 209,155.5C 219.064,148.587 230.231,144.42 242.5,143C 264.772,140.066 287.105,137.733 309.5,136C 318.336,134.291 327.003,131.958 335.5,129C 353.52,123.088 367.686,112.254 378,96.5C 379.667,95.1667 381.333,95.1667 383,96.5C 382.749,106.082 380.582,115.249 376.5,124C 376.833,124.5 377.167,125 377.5,125.5C 397.567,116.433 413.234,102.433 424.5,83.5C 423.691,81.9291 423.357,80.2624 423.5,78.5 Z"/></g>
<g><path style="opacity:1" fill="#9a9a9a" d="M 162.5,85.5 C 162.5,86.5 162.5,87.5 162.5,88.5C 162.631,89.3764 162.298,90.0431 161.5,90.5C 160.753,88.7106 161.086,87.0439 162.5,85.5 Z"/></g>
<g><path style="opacity:1" fill="#504f4f" d="M 130.5,85.5 C 130.408,87.8477 129.408,89.5144 127.5,90.5C 127.75,88.326 128.75,86.6594 130.5,85.5 Z"/></g>
<g><path style="opacity:1" fill="#be7b2d" d="M 136.5,88.5 C 136.288,92.2076 134.622,94.8743 131.5,96.5C 132.169,93.1511 133.836,90.4844 136.5,88.5 Z"/></g>
<g><path style="opacity:1" fill="#de8f32" d="M 154.5,85.5 C 153.85,87.4352 153.517,89.4352 153.5,91.5C 151.431,95.0437 151.098,98.7104 152.5,102.5C 153.601,103.598 154.934,103.765 156.5,103C 157.789,101.198 159.456,100.031 161.5,99.5C 158.698,104.587 154.865,105.587 150,102.5C 149.381,96.1506 150.881,90.4839 154.5,85.5 Z"/></g>
<g><path style="opacity:1" fill="#6b3f14" d="M 153.5,91.5 C 152.886,95.1352 152.552,98.8019 152.5,102.5C 151.098,98.7104 151.431,95.0437 153.5,91.5 Z"/></g>
<g><path style="opacity:1" fill="#ca8433" d="M 170.5,91.5 C 168.1,94.9031 165.1,97.5698 161.5,99.5C 163.9,96.0969 166.9,93.4302 170.5,91.5 Z"/></g>
<g><path style="opacity:1" fill="#92530e" d="M 426.5,85.5 C 429.347,91.3976 430.681,97.7309 430.5,104.5C 428.252,98.4838 426.918,92.1505 426.5,85.5 Z"/></g>
<g><path style="opacity:1" fill="#6e6e6e" d="M 123.5,98.5 C 122.744,102.767 121.411,106.767 119.5,110.5C 119.619,105.996 120.952,101.996 123.5,98.5 Z"/></g>
<g><path style="opacity:1" fill="#b4742b" d="M 131.5,96.5 C 131.489,98.5466 131.156,100.547 130.5,102.5C 128.377,107.182 126.377,111.848 124.5,116.5C 125.314,109.211 127.648,102.544 131.5,96.5 Z"/></g>
<g><path style="opacity:1" fill="#c06701" d="M 110.5,144.5 C 114.64,144.021 118.64,143.021 122.5,141.5C 123.468,139.393 123.802,137.059 123.5,134.5C 126.808,125.059 131.808,116.559 138.5,109C 139.635,108.251 140.635,108.417 141.5,109.5C 137.996,118.186 136.496,127.186 137,136.5C 142.52,130.315 148.687,124.815 155.5,120C 160.497,116.715 165.83,115.215 171.5,115.5C 166.816,124.202 161.15,132.202 154.5,139.5C 159.504,147.163 162.504,155.496 163.5,164.5C 158.618,164.807 153.951,163.974 149.5,162C 144.992,158.658 140.992,154.825 137.5,150.5C 136.255,155.828 134.255,160.828 131.5,165.5C 130.311,166.429 128.978,166.762 127.5,166.5C 124.356,159.526 122.356,152.193 121.5,144.5C 117.833,144.5 114.167,144.5 110.5,144.5 Z"/></g>
<g><path style="opacity:1" fill="#a5a5a5" d="M 438.5,114.5 C 439.344,117.345 440.01,120.345 440.5,123.5C 439.883,123.389 439.383,123.056 439,122.5C 438.503,119.854 438.336,117.187 438.5,114.5 Z"/></g>
<g><path style="opacity:1" fill="#925b1f" d="M 124.5,116.5 C 124.034,122.491 123.701,128.491 123.5,134.5C 123.802,137.059 123.468,139.393 122.5,141.5C 122.334,134.825 122.5,128.158 123,121.5C 123.198,119.618 123.698,117.952 124.5,116.5 Z"/></g>
<g><path style="opacity:1" fill="#f7982d" d="M 435.5,129.5 C 436.833,132.833 438.167,136.167 439.5,139.5C 439.41,142.152 440.076,144.485 441.5,146.5C 442.612,148.599 443.279,150.933 443.5,153.5C 443.41,156.152 444.076,158.485 445.5,160.5C 445.28,165.1 445.946,169.433 447.5,173.5C 448.167,173.5 448.5,173.833 448.5,174.5C 448.505,178.534 448.838,182.534 449.5,186.5C 449.827,191.214 449.493,195.88 448.5,200.5C 447.657,197.07 446.324,194.07 444.5,191.5C 440.742,183.907 437.742,175.907 435.5,167.5C 435.493,164.962 435.159,162.462 434.5,160C 432.254,156.811 430.921,153.311 430.5,149.5C 429.5,149.5 428.5,149.5 427.5,149.5C 425.549,146.214 423.215,143.214 420.5,140.5C 419.438,139.425 419.438,138.425 420.5,137.5C 425.686,135.075 430.686,132.409 435.5,129.5 Z"/></g>
<g><path style="opacity:1" fill="#7d7d7d" d="M 117.5,119.5 C 117.1,125.829 116.767,132.162 116.5,138.5C 113.833,138.5 111.167,138.5 108.5,138.5C 110.607,137.532 112.941,137.198 115.5,137.5C 115.105,131.238 115.772,125.238 117.5,119.5 Z"/></g>
<g><path style="opacity:1" fill="#777777" d="M 108.5,138.5 C 106.485,139.924 104.152,140.59 101.5,140.5C 103.515,139.076 105.848,138.41 108.5,138.5 Z"/></g>
<g><path style="opacity:1" fill="#7a7a7a" d="M 445.5,136.5 C 447.277,139.505 448.277,142.838 448.5,146.5C 446.723,143.495 445.723,140.162 445.5,136.5 Z"/></g>
<g><path style="opacity:1" fill="#8b8b8b" d="M 101.5,140.5 C 101.027,141.906 100.027,142.573 98.5,142.5C 98.9731,141.094 99.9731,140.427 101.5,140.5 Z"/></g>
<g><path style="opacity:1" fill="#804e1c" d="M 439.5,139.5 C 440.924,141.515 441.59,143.848 441.5,146.5C 440.076,144.485 439.41,142.152 439.5,139.5 Z"/></g>
<g><path style="opacity:1" fill="#6d6d6d" d="M 98.5,142.5 C 97.7377,144.262 96.4044,145.262 94.5,145.5C 95.2623,143.738 96.5956,142.738 98.5,142.5 Z"/></g>
<g><path style="opacity:1" fill="#fac0ac" d="M 442.5,207.5 C 443.057,212.165 444.39,216.498 446.5,220.5C 448.141,225.061 449.474,229.727 450.5,234.5C 450.41,237.152 451.076,239.485 452.5,241.5C 455.309,252.403 457.642,263.403 459.5,274.5C 459.59,282.824 460.923,290.824 463.5,298.5C 465.769,319.411 466.102,340.411 464.5,361.5C 463.419,364.627 462.753,367.96 462.5,371.5C 458.112,398.154 444.445,418.32 421.5,432C 401.336,440.038 380.67,446.205 359.5,450.5C 350.317,451.862 341.317,453.528 332.5,455.5C 317.461,457.2 302.461,457.534 287.5,456.5C 277.67,453.317 267.67,450.317 257.5,447.5C 238.933,437.434 224.433,423.1 214,404.5C 208.748,394.669 204.082,384.669 200,374.5C 196.978,359.747 193.645,345.081 190,330.5C 187.695,311.842 187.195,293.176 188.5,274.5C 194.816,263.881 201.649,253.547 209,243.5C 215.815,232.396 218.482,220.396 217,207.5C 215.909,197.481 214.743,187.481 213.5,177.5C 213.503,174.975 213.837,172.641 214.5,170.5C 233.276,170.712 251.943,170.379 270.5,169.5C 272.833,169.5 275.167,169.5 277.5,169.5C 285.84,169.666 294.173,169.5 302.5,169C 304.382,168.802 306.048,168.302 307.5,167.5C 309.5,167.5 311.5,167.5 313.5,167.5C 318.1,167.72 322.433,167.054 326.5,165.5C 327.5,165.5 328.5,165.5 329.5,165.5C 337.473,165.169 345.14,163.836 352.5,161.5C 371.964,158.386 390.297,152.22 407.5,143C 416.547,143.695 422.38,148.529 425,157.5C 431.747,173.809 437.581,190.475 442.5,207.5 Z"/></g>
<g><path style="opacity:1" fill="#989898" d="M 94.5,145.5 C 93.5,147.167 92.1667,148.5 90.5,149.5C 90.8333,147.167 92.1667,145.833 94.5,145.5 Z"/></g>
<g><path style="opacity:1" fill="#c27e2e" d="M 110.5,144.5 C 107.918,146.742 104.918,148.076 101.5,148.5C 103.835,145.835 106.835,144.502 110.5,144.5 Z"/></g>
<g><path style="opacity:1" fill="#b1742d" d="M 101.5,148.5 C 98.8333,151.833 95.8333,154.833 92.5,157.5C 94.5,153.5 97.5,150.5 101.5,148.5 Z"/></g>
<g><path style="opacity:1" fill="#462407" d="M 374.5,150.5 C 371.146,152.258 367.479,153.258 363.5,153.5C 366.809,151.63 370.475,150.63 374.5,150.5 Z"/></g>
<g><path style="opacity:1" fill="#626262" d="M 448.5,146.5 C 449.924,148.515 450.59,150.848 450.5,153.5C 449.076,151.485 448.41,149.152 448.5,146.5 Z"/></g>
<g><path style="opacity:1" fill="#898989" d="M 90.5,149.5 C 89.9202,151.749 88.5869,153.415 86.5,154.5C 87.0798,152.251 88.4131,150.585 90.5,149.5 Z"/></g>
<g><path style="opacity:1" fill="#787878" d="M 450.5,153.5 C 452.258,156.854 453.258,160.521 453.5,164.5C 451.742,161.146 450.742,157.479 450.5,153.5 Z"/></g>
<g><path style="opacity:1" fill="#cc832e" d="M 427.5,149.5 C 428.5,149.5 429.5,149.5 430.5,149.5C 430.921,153.311 432.254,156.811 434.5,160C 435.159,162.462 435.493,164.962 435.5,167.5C 432.66,161.672 429.993,155.672 427.5,149.5 Z"/></g>
<g><path style="opacity:1" fill="#999999" d="M 85.5,156.5 C 85.573,158.027 84.9063,159.027 83.5,159.5C 83.427,157.973 84.0937,156.973 85.5,156.5 Z"/></g>
<g><path style="opacity:1" fill="#84511a" d="M 92.5,157.5 C 95.8909,159.125 99.5575,160.125 103.5,160.5C 99.4295,160.234 95.4295,160.567 91.5,161.5C 90.1908,159.76 90.5241,158.427 92.5,157.5 Z"/></g>
<g><path style="opacity:1" fill="#371904" d="M 334.5,158.5 C 330.081,159.972 325.414,160.638 320.5,160.5C 324.919,159.028 329.586,158.362 334.5,158.5 Z"/></g>
<g><path style="opacity:1" fill="#84531d" d="M 443.5,153.5 C 444.924,155.515 445.59,157.848 445.5,160.5C 444.076,158.485 443.41,156.152 443.5,153.5 Z"/></g>
<g><path style="opacity:1" fill="#331904" d="M 304.5,161.5 C 302.708,162.309 300.708,162.809 298.5,163C 290.841,163.5 283.174,163.666 275.5,163.5C 284.999,162.584 294.665,161.917 304.5,161.5 Z"/></g>
<g><path style="opacity:1" fill="#9e7d71" d="M 352.5,161.5 C 345.14,163.836 337.473,165.169 329.5,165.5C 336.943,163.623 344.61,162.29 352.5,161.5 Z"/></g>
<g><path style="opacity:1" fill="#b69184" d="M 326.5,165.5 C 322.433,167.054 318.1,167.72 313.5,167.5C 317.567,165.946 321.9,165.28 326.5,165.5 Z"/></g>
<g><path style="opacity:1" fill="#848484" d="M 81.5,164.5 C 81.3379,166.527 81.5045,168.527 82,170.5C 83.3561,171.38 84.8561,171.714 86.5,171.5C 79.8948,172.885 78.2282,170.551 81.5,164.5 Z"/></g>
<g><path style="opacity:1" fill="#7d7c7c" d="M 102.5,166.5 C 103.675,166.281 104.675,166.614 105.5,167.5C 105.376,168.107 105.043,168.44 104.5,168.5C 103.833,167.833 103.167,167.167 102.5,166.5 Z"/></g>
<g><path style="opacity:1" fill="#c09a8c" d="M 307.5,167.5 C 306.048,168.302 304.382,168.802 302.5,169C 294.173,169.5 285.84,169.666 277.5,169.5C 287.333,168.595 297.333,167.929 307.5,167.5 Z"/></g>
<g><path style="opacity:1" fill="#b38d7f" d="M 270.5,169.5 C 251.943,170.379 233.276,170.712 214.5,170.5C 214.611,169.883 214.944,169.383 215.5,169C 233.813,169.369 252.146,169.536 270.5,169.5 Z"/></g>
<g><path style="opacity:1" fill="#5c5c5c" d="M 104.5,168.5 C 104.585,171.649 103.585,174.316 101.5,176.5C 101.415,173.351 102.415,170.684 104.5,168.5 Z"/></g>
<g><path style="opacity:1" fill="#d38830" d="M 112.5,164.5 C 113.629,166.628 113.796,168.961 113,171.5C 111.165,174.901 109.332,178.235 107.5,181.5C 107.5,180.833 107.5,180.167 107.5,179.5C 108.369,174.127 110.035,169.127 112.5,164.5 Z"/></g>
<g><path style="opacity:1" fill="#935e22" d="M 445.5,160.5 C 447.177,164.545 447.844,168.878 447.5,173.5C 445.946,169.433 445.28,165.1 445.5,160.5 Z"/></g>
<g><path style="opacity:1" fill="#8f5b22" d="M 448.5,174.5 C 449.925,177.903 450.758,181.57 451,185.5C 451.819,191.681 451.653,197.681 450.5,203.5C 450.822,197.642 450.489,191.975 449.5,186.5C 448.838,182.534 448.505,178.534 448.5,174.5 Z"/></g>
<g><path style="opacity:1" fill="#63615e" d="M 101.5,176.5 C 101.5,184.833 101.5,193.167 101.5,201.5C 98.9794,193.157 98.9794,184.824 101.5,176.5 Z"/></g>
<g><path style="opacity:1" fill="#bd6502" d="M 107.5,179.5 C 107.5,180.167 107.5,180.833 107.5,181.5C 107.21,185.936 107.71,190.27 109,194.5C 115.171,206.183 122.338,217.183 130.5,227.5C 130.833,226.333 131.167,225.167 131.5,224C 128.875,214.068 128.041,203.901 129,193.5C 130.224,190.527 132.224,189.86 135,191.5C 139.395,204.562 144.728,217.228 151,229.5C 154.062,235.23 157.896,240.397 162.5,245C 180.434,243.858 196.101,237.358 209.5,225.5C 209.102,230.193 207.602,234.526 205,238.5C 194.005,253.15 184.005,268.484 175,284.5C 173.237,300.794 173.07,317.127 174.5,333.5C 174.813,337.042 174.479,340.375 173.5,343.5C 169.07,337.899 165.237,331.899 162,325.5C 158.667,322.167 155.333,318.833 152,315.5C 145.24,300.982 138.24,286.649 131,272.5C 126.401,260.871 121.901,249.204 117.5,237.5C 116.538,233.605 115.204,229.939 113.5,226.5C 108.331,211.166 106.331,195.5 107.5,179.5 Z"/></g>
<g><path style="opacity:1" fill="#808080" d="M 456.5,183.5 C 459.167,191.5 459.167,199.5 456.5,207.5C 456.5,199.5 456.5,191.5 456.5,183.5 Z"/></g>
<g><path style="opacity:1" fill="#dc9239" d="M 449.5,186.5 C 450.489,191.975 450.822,197.642 450.5,203.5C 450.5,204.167 450.5,204.833 450.5,205.5C 449.1,204.9 448.1,203.9 447.5,202.5C 446.036,198.981 445.036,195.314 444.5,191.5C 446.324,194.07 447.657,197.07 448.5,200.5C 449.493,195.88 449.827,191.214 449.5,186.5 Z"/></g>
<g><path style="opacity:1" fill="#c47f30" d="M 207.5,182.5 C 209.645,193.085 210.979,203.918 211.5,215C 211.696,218.805 211.03,222.305 209.5,225.5C 208.671,211.181 208.005,196.847 207.5,182.5 Z"/></g>
<g><path style="opacity:1" fill="#c06910" d="M 385.5,203.5 C 396.783,201.982 406.283,205.315 414,213.5C 414.49,214.793 414.657,216.127 414.5,217.5C 403.891,216.105 393.224,214.938 382.5,214C 380.582,212.23 380.082,210.063 381,207.5C 382.397,205.93 383.897,204.596 385.5,203.5 Z"/></g>
<g><path style="opacity:1" fill="#7e5425" d="M 447.5,202.5 C 448.1,203.9 449.1,204.9 450.5,205.5C 450.719,206.675 450.386,207.675 449.5,208.5C 447.914,206.827 447.247,204.827 447.5,202.5 Z"/></g>
<g><path style="opacity:1" fill="#9a786d" d="M 442.5,207.5 C 444.61,211.502 445.943,215.835 446.5,220.5C 444.39,216.498 443.057,212.165 442.5,207.5 Z"/></g>
<g><path style="opacity:1" fill="#c0690e" d="M 284.5,217.5 C 284.703,219.39 284.037,220.89 282.5,222C 272.084,225.265 262.084,229.432 252.5,234.5C 251.558,234.392 250.725,234.059 250,233.5C 249.333,231.833 249.333,230.167 250,228.5C 254.192,222.13 259.692,217.463 266.5,214.5C 271.14,213.603 275.806,213.436 280.5,214C 281.705,215.376 283.038,216.542 284.5,217.5 Z"/></g>
<g><path style="opacity:1" fill="#e69f6c" d="M 284.5,217.5 C 283.038,216.542 281.705,215.376 280.5,214C 275.806,213.436 271.14,213.603 266.5,214.5C 267.263,213.732 268.263,213.232 269.5,213C 273.5,212.333 277.5,212.333 281.5,213C 283.141,214.129 284.141,215.629 284.5,217.5 Z"/></g>
<g><path style="opacity:1" fill="#8e8f8f" d="M 102.5,209.5 C 104.416,213.163 105.416,217.163 105.5,221.5C 103.898,217.761 102.898,213.761 102.5,209.5 Z"/></g>
<g><path style="opacity:1" fill="#787878" d="M 454.5,216.5 C 454.371,218.216 454.038,219.883 453.5,221.5C 452.322,219.662 452.655,217.995 454.5,216.5 Z"/></g>
<g><path style="opacity:1" fill="#9c9c9c" d="M 105.5,221.5 C 106.924,223.515 107.59,225.848 107.5,228.5C 106.076,226.485 105.41,224.152 105.5,221.5 Z"/></g>
<g><path style="opacity:1" fill="#707070" d="M 453.5,221.5 C 454.924,223.515 455.59,225.848 455.5,228.5C 454.076,226.485 453.41,224.152 453.5,221.5 Z"/></g>
<g><path style="opacity:1" fill="#482308" d="M 113.5,226.5 C 115.204,229.939 116.538,233.605 117.5,237.5C 115.01,234.374 113.677,230.708 113.5,226.5 Z"/></g>
<g><path style="opacity:1" fill="#a2a2a2" d="M 107.5,228.5 C 109.277,231.505 110.277,234.838 110.5,238.5C 108.723,235.495 107.723,232.162 107.5,228.5 Z"/></g>
<g><path style="opacity:1" fill="#797979" d="M 455.5,228.5 C 456.924,230.515 457.59,232.848 457.5,235.5C 456.076,233.485 455.41,231.152 455.5,228.5 Z"/></g>
<g><path style="opacity:1" fill="#7a7a7a" d="M 110.5,238.5 C 112.213,239.635 112.88,241.302 112.5,243.5C 111.463,242.07 110.796,240.403 110.5,238.5 Z"/></g>
<g><path style="opacity:1" fill="#84665d" d="M 450.5,234.5 C 451.924,236.515 452.59,238.848 452.5,241.5C 451.076,239.485 450.41,237.152 450.5,234.5 Z"/></g>
<g><path style="opacity:1" fill="#0a0606" d="M 395.5,240.5 C 417.417,239.239 426.25,249.239 422,270.5C 415.674,280.058 406.841,283.558 395.5,281C 381.955,273.196 378.788,262.362 386,248.5C 388.775,245.22 391.942,242.554 395.5,240.5 Z"/></g>
<g><path style="opacity:1" fill="#7e7e7e" d="M 457.5,235.5 C 459.04,237.838 459.706,240.505 459.5,243.5C 457.96,241.162 457.294,238.495 457.5,235.5 Z"/></g>
<g><path style="opacity:1" fill="#9e9e9e" d="M 397.5,248.5 C 394.549,248.287 391.882,248.954 389.5,250.5C 391.615,247.483 394.282,246.816 397.5,248.5 Z"/></g>
<g><path style="opacity:1" fill="#f0f0f0" d="M 397.5,248.5 C 402.725,251.1 403.892,255.1 401,260.5C 393.583,265.793 389.083,263.96 387.5,255C 387.307,252.992 387.974,251.492 389.5,250.5C 391.882,248.954 394.549,248.287 397.5,248.5 Z"/></g>
<g><path style="opacity:1" fill="#848484" d="M 114.5,248.5 C 116.267,250.792 117.267,253.458 117.5,256.5C 115.733,254.208 114.733,251.542 114.5,248.5 Z"/></g>
<g><path style="opacity:1" fill="#0a0606" d="M 268.5,254.5 C 288.227,253.728 297.727,263.062 297,282.5C 290.35,297.826 279.183,302.66 263.5,297C 252.612,288.712 249.779,278.212 255,265.5C 258.794,260.863 263.294,257.197 268.5,254.5 Z"/></g>
<g><path style="opacity:1" fill="#8c8c8c" d="M 461.5,252.5 C 462.924,254.515 463.59,256.848 463.5,259.5C 462.076,257.485 461.41,255.152 461.5,252.5 Z"/></g>
<g><path style="opacity:1" fill="#ececec" d="M 263.5,262.5 C 271.641,261.953 275.141,265.62 274,273.5C 269.7,279.664 265.033,279.997 260,274.5C 258.593,269.643 259.76,265.643 263.5,262.5 Z"/></g>
<g><path style="opacity:1" fill="#838383" d="M 120.5,263.5 C 121.931,264.78 122.598,266.447 122.5,268.5C 121.069,267.22 120.402,265.553 120.5,263.5 Z"/></g>
<g><path style="opacity:1" fill="#999999" d="M 464.5,265.5 C 465.913,268.219 466.58,271.219 466.5,274.5C 465.087,271.781 464.42,268.781 464.5,265.5 Z"/></g>
<g><path style="opacity:1" fill="#979796" d="M 125.5,275.5 C 127.957,278.751 129.624,282.418 130.5,286.5C 128.043,283.249 126.376,279.582 125.5,275.5 Z"/></g>
<g><path style="opacity:1" fill="#bc9688" d="M 459.5,274.5 C 461.709,282.232 463.042,290.232 463.5,298.5C 460.923,290.824 459.59,282.824 459.5,274.5 Z"/></g>
<g><path style="opacity:1" fill="#f29181" d="M 188.5,274.5 C 187.195,293.176 187.695,311.842 190,330.5C 193.645,345.081 196.978,359.747 200,374.5C 204.082,384.669 208.748,394.669 214,404.5C 224.433,423.1 238.933,437.434 257.5,447.5C 256.866,448.947 255.699,449.613 254,449.5C 247.368,448.012 240.868,446.012 234.5,443.5C 223.151,438.334 213.318,431.001 205,421.5C 200.303,414.652 195.47,407.985 190.5,401.5C 189.122,400.766 187.622,400.099 186,399.5C 185.168,393.337 183.334,387.503 180.5,382C 179.204,372.32 177.204,362.82 174.5,353.5C 177.044,353.896 179.211,353.229 181,351.5C 180.909,341.847 180.742,332.18 180.5,322.5C 180.333,311.828 180.5,301.161 181,290.5C 181.711,286.903 183.545,284.07 186.5,282C 186.257,281.098 185.923,280.265 185.5,279.5C 185.75,277.326 186.75,275.659 188.5,274.5 Z"/></g>
<g><path style="opacity:1" fill="#c1786c" d="M 185.5,279.5 C 185.923,280.265 186.257,281.098 186.5,282C 183.545,284.07 181.711,286.903 181,290.5C 180.5,301.161 180.333,311.828 180.5,322.5C 179.341,311.341 179.174,300.008 180,288.5C 180.843,284.8 182.676,281.8 185.5,279.5 Z"/></g>
<g><path style="opacity:1" fill="#aeaeae" d="M 140.5,306.5 C 141.404,307.209 141.737,308.209 141.5,309.5C 139.5,309.5 137.5,309.5 135.5,309.5C 137.531,309.028 139.198,308.028 140.5,306.5 Z"/></g>
<g><path style="opacity:1" fill="#5a5a5a" d="M 130.5,311.5 C 129.415,313.587 127.749,314.92 125.5,315.5C 126.585,313.413 128.251,312.08 130.5,311.5 Z"/></g>
<g><path style="opacity:1" fill="#808080" d="M 125.5,315.5 C 125.262,317.404 124.262,318.738 122.5,319.5C 122.738,317.596 123.738,316.262 125.5,315.5 Z"/></g>
<g><path style="opacity:1" fill="#f7bdaa" d="M 174.5,353.5 C 177.204,362.82 179.204,372.32 180.5,382C 183.334,387.503 185.168,393.337 186,399.5C 187.622,400.099 189.122,400.766 190.5,401.5C 154.17,404.317 132.336,387.983 125,352.5C 124.333,345.167 124.333,337.833 125,330.5C 129.274,314.604 137.774,311.771 150.5,322C 156.016,326.865 160.183,332.698 163,339.5C 166.29,344.622 170.123,349.289 174.5,353.5 Z"/></g>
<g><path style="opacity:1" fill="#666666" d="M 122.5,319.5 C 122.31,322.855 121.31,325.855 119.5,328.5C 119.528,325.084 120.528,322.084 122.5,319.5 Z"/></g>
<g><path style="opacity:1" fill="#6d6d6d" d="M 469.5,294.5 C 470.73,299.294 471.563,304.294 472,309.5C 472.198,321.033 472.698,332.533 473.5,344C 472.713,346.099 472.38,348.266 472.5,350.5C 472.167,350.5 471.833,350.5 471.5,350.5C 471.899,331.778 471.232,313.111 469.5,294.5 Z"/></g>
<g><path style="opacity:1" fill="#f49382" d="M 138.5,332.5 C 144.948,332.142 149.781,334.809 153,340.5C 155.221,351.047 158.221,361.38 162,371.5C 162.711,380.506 159.545,382.339 152.5,377C 151.88,374.527 151.214,372.027 150.5,369.5C 143.683,366.527 138.183,361.86 134,355.5C 130.796,346.72 132.296,339.054 138.5,332.5 Z"/></g>
<g><path style="opacity:1" fill="#522f0e" d="M 174.5,333.5 C 175.808,337.019 175.808,340.685 174.5,344.5C 173.893,344.376 173.56,344.043 173.5,343.5C 174.479,340.375 174.813,337.042 174.5,333.5 Z"/></g>
<g><path style="opacity:1" fill="#563f38" d="M 415.5,351.5 C 413.194,351.993 410.861,352.326 408.5,352.5C 410.713,350.688 413.047,350.355 415.5,351.5 Z"/></g>
<g><path style="opacity:1" fill="#120c0b" d="M 415.5,351.5 C 417.799,352.632 419.132,354.465 419.5,357C 410.227,386.941 390.227,404.941 359.5,411C 324.924,413.956 297.091,401.789 276,374.5C 275.31,363.38 280.476,359.38 291.5,362.5C 295.919,363.972 300.586,364.638 305.5,364.5C 340.43,367.01 374.763,363.01 408.5,352.5C 410.861,352.326 413.194,351.993 415.5,351.5 Z"/></g>
<g><path style="opacity:1" fill="#a1a1a1" d="M 471.5,350.5 C 471.833,350.5 472.167,350.5 472.5,350.5C 472.361,358.827 471.028,366.827 468.5,374.5C 469.501,366.495 470.501,358.495 471.5,350.5 Z"/></g>
<g><path style="opacity:1" fill="#f9f7f7" d="M 400.5,379.5 C 395.694,380.459 391.028,381.792 386.5,383.5C 379.892,384.096 373.558,385.43 367.5,387.5C 355.487,388.761 343.487,390.094 331.5,391.5C 322.167,391.5 312.833,391.5 303.5,391.5C 294.949,386.952 287.949,380.619 282.5,372.5C 282.5,371.5 282.5,370.5 282.5,369.5C 286.5,369.5 290.5,369.5 294.5,369.5C 316.162,372.124 337.829,372.124 359.5,369.5C 367.473,369.169 375.14,367.836 382.5,365.5C 392.216,363.089 401.883,360.422 411.5,357.5C 412.167,357.833 412.833,358.167 413.5,358.5C 410.424,366.326 406.091,373.326 400.5,379.5 Z"/></g>
<g><path style="opacity:1" fill="#a9877a" d="M 291.5,362.5 C 296.414,362.362 301.081,363.028 305.5,364.5C 300.586,364.638 295.919,363.972 291.5,362.5 Z"/></g>
<g><path style="opacity:1" fill="#929393" d="M 120.5,361.5 C 122.072,364.215 123.072,367.215 123.5,370.5C 121.528,367.916 120.528,364.916 120.5,361.5 Z"/></g>
<g><path style="opacity:1" fill="#9c9c9c" d="M 382.5,365.5 C 375.14,367.836 367.473,369.169 359.5,369.5C 366.943,367.623 374.61,366.29 382.5,365.5 Z"/></g>
<g><path style="opacity:1" fill="#b3b3b3" d="M 294.5,369.5 C 290.5,369.5 286.5,369.5 282.5,369.5C 282.5,370.5 282.5,371.5 282.5,372.5C 281.199,371.116 281.199,369.616 282.5,368C 286.7,367.721 290.7,368.221 294.5,369.5 Z"/></g>
<g><path style="opacity:1" fill="#584039" d="M 464.5,361.5 C 464.664,364.187 464.497,366.854 464,369.5C 463.722,370.416 463.222,371.082 462.5,371.5C 462.753,367.96 463.419,364.627 464.5,361.5 Z"/></g>
<g><path style="opacity:1" fill="#969697" d="M 126.5,377.5 C 128.25,378.659 129.25,380.326 129.5,382.5C 127.75,381.341 126.75,379.674 126.5,377.5 Z"/></g>
<g><path style="opacity:1" fill="#e1615f" d="M 400.5,379.5 C 399.581,382.089 397.914,384.089 395.5,385.5C 395.5,384.5 395.5,383.5 395.5,382.5C 392.482,382.704 389.482,383.037 386.5,383.5C 391.028,381.792 395.694,380.459 400.5,379.5 Z"/></g>
<g><path style="opacity:1" fill="#6e6f6f" d="M 129.5,382.5 C 131.446,383.035 132.446,384.368 132.5,386.5C 131.026,385.564 130.026,384.23 129.5,382.5 Z"/></g>
<g><path style="opacity:1" fill="#f95554" d="M 395.5,385.5 C 394.5,386.833 393.5,388.167 392.5,389.5C 390.251,390.08 388.585,391.413 387.5,393.5C 384.802,393.845 382.802,395.178 381.5,397.5C 375.719,401.2 369.386,403.534 362.5,404.5C 351.482,404.619 340.482,404.286 329.5,403.5C 324.445,400.924 319.112,398.924 313.5,397.5C 311.847,397.34 310.514,396.674 309.5,395.5C 309.047,394.542 308.381,393.708 307.5,393C 315.677,392.829 323.677,392.329 331.5,391.5C 343.487,390.094 355.487,388.761 367.5,387.5C 374.501,388.412 380.835,387.078 386.5,383.5C 389.482,383.037 392.482,382.704 395.5,382.5C 395.5,383.5 395.5,384.5 395.5,385.5 Z"/></g>
<g><path style="opacity:1" fill="#8e8e8e" d="M 467.5,379.5 C 467.202,385.052 465.536,390.052 462.5,394.5C 463.595,389.216 465.261,384.216 467.5,379.5 Z"/></g>
<g><path style="opacity:1" fill="#f26e6b" d="M 386.5,383.5 C 380.835,387.078 374.501,388.412 367.5,387.5C 373.558,385.43 379.892,384.096 386.5,383.5 Z"/></g>
<g><path style="opacity:1" fill="#afafaf" d="M 134.5,388.5 C 135.833,389.167 136.833,390.167 137.5,391.5C 135.5,391.5 134.5,390.5 134.5,388.5 Z"/></g>
<g><path style="opacity:1" fill="#da6262" d="M 303.5,391.5 C 312.833,391.5 322.167,391.5 331.5,391.5C 323.677,392.329 315.677,392.829 307.5,393C 308.381,393.708 309.047,394.542 309.5,395.5C 307.147,394.66 305.147,393.326 303.5,391.5 Z"/></g>
<g><path style="opacity:1" fill="#531719" d="M 392.5,389.5 C 391.415,391.587 389.749,392.92 387.5,393.5C 388.585,391.413 390.251,390.08 392.5,389.5 Z"/></g>
<g><path style="opacity:1" fill="#808080" d="M 139.5,393.5 C 141.404,393.738 142.738,394.738 143.5,396.5C 141.596,396.262 140.262,395.262 139.5,393.5 Z"/></g>
<g><path style="opacity:1" fill="#6f2424" d="M 387.5,393.5 C 385.853,395.326 383.853,396.66 381.5,397.5C 382.802,395.178 384.802,393.845 387.5,393.5 Z"/></g>
<g><path style="opacity:1" fill="#898989" d="M 143.5,396.5 C 145.027,396.427 146.027,397.094 146.5,398.5C 144.973,398.573 143.973,397.906 143.5,396.5 Z"/></g>
<g><path style="opacity:1" fill="#923434" d="M 313.5,397.5 C 319.112,398.924 324.445,400.924 329.5,403.5C 323.686,402.585 318.353,400.585 313.5,397.5 Z"/></g>
<g><path style="opacity:1" fill="#9c9d9c" d="M 150.5,400.5 C 152.027,400.427 153.027,401.094 153.5,402.5C 151.973,402.573 150.973,401.906 150.5,400.5 Z"/></g>
<g><path style="opacity:1" fill="#70706f" d="M 154.5,402.5 C 156.898,402.259 158.898,402.926 160.5,404.5C 158.102,404.741 156.102,404.074 154.5,402.5 Z"/></g>
<g><path style="opacity:1" fill="#ae4141" d="M 329.5,403.5 C 340.482,404.286 351.482,404.619 362.5,404.5C 351.422,407.311 340.422,406.978 329.5,403.5 Z"/></g>
<g><path style="opacity:1" fill="#a5a5a5" d="M 173.5,407.5 C 178.511,407.334 183.511,407.501 188.5,408C 189.582,409.33 190.249,410.83 190.5,412.5C 189.163,411.685 188.163,410.518 187.5,409C 182.649,408.826 177.982,408.326 173.5,407.5 Z"/></g>
<g><path style="opacity:1" fill="#616161" d="M 190.5,412.5 C 192.796,413.733 194.13,415.733 194.5,418.5C 192.684,416.882 191.351,414.882 190.5,412.5 Z"/></g>
<g><path style="opacity:1" fill="#7e7e7d" d="M 194.5,418.5 C 196.446,419.035 197.446,420.368 197.5,422.5C 196.026,421.564 195.026,420.23 194.5,418.5 Z"/></g>
<g><path style="opacity:1" fill="#a0a1a2" d="M 445.5,421.5 C 445.5,422.833 444.833,423.5 443.5,423.5C 443.833,422.5 444.5,421.833 445.5,421.5 Z"/></g>
<g><path style="opacity:1" fill="#a1a1a1" d="M 199.5,424.5 C 201.167,425.5 202.5,426.833 203.5,428.5C 201.167,428.167 199.833,426.833 199.5,424.5 Z"/></g>
<g><path style="opacity:1" fill="#858585" d="M 443.5,423.5 C 442.167,425.167 442.167,426.833 443.5,428.5C 440.833,426.833 440.833,425.167 443.5,423.5 Z"/></g>
<g><path style="opacity:1" fill="#949494" d="M 204.5,430.5 C 206.749,431.08 208.415,432.413 209.5,434.5C 207.251,433.92 205.585,432.587 204.5,430.5 Z"/></g>
<g><path style="opacity:1" fill="#878787" d="M 443.5,429.5 C 446.448,431.362 449.448,433.029 452.5,434.5C 449.689,434.174 447.022,433.341 444.5,432C 443.748,431.329 443.414,430.496 443.5,429.5 Z"/></g>
<g><path style="opacity:1" fill="#d5d4d2" d="M 433.5,452.5 C 433.985,465.495 434.318,478.495 434.5,491.5C 428.334,492.476 422,493.309 415.5,494C 413.675,495.466 413.175,497.299 414,499.5C 417.097,502.39 419.097,505.724 420,509.5C 408.446,521.054 396.946,532.554 385.5,544C 384.668,544.688 384.002,544.521 383.5,543.5C 382.565,540.585 381.232,537.918 379.5,535.5C 391.68,509.141 403.847,482.808 416,456.5C 418.395,450.648 420.395,444.648 422,438.5C 424.807,436.23 427.807,435.23 431,435.5C 433.118,440.953 433.952,446.62 433.5,452.5 Z"/></g>
<g><path style="opacity:1" fill="#7e7e7e" d="M 209.5,434.5 C 212.089,435.419 214.089,437.086 215.5,439.5C 212.911,438.581 210.911,436.914 209.5,434.5 Z"/></g>
<g><path style="opacity:1" fill="#737373" d="M 215.5,439.5 C 217.027,439.427 218.027,440.094 218.5,441.5C 216.973,441.573 215.973,440.906 215.5,439.5 Z"/></g>
<g><path style="opacity:1" fill="#717171" d="M 218.5,441.5 C 220.027,441.427 221.027,442.094 221.5,443.5C 219.973,443.573 218.973,442.906 218.5,441.5 Z"/></g>
<g><path style="opacity:1" fill="#f7f7f0" d="M 472.5,556.5 C 472.737,557.791 472.404,558.791 471.5,559.5C 469.396,553.881 465.896,549.215 461,545.5C 461.289,534.343 461.789,523.177 462.5,512C 462.463,500.725 461.463,489.559 459.5,478.5C 459.59,475.848 458.924,473.515 457.5,471.5C 456.055,461.058 453.055,451.058 448.5,441.5C 449.365,440.417 450.365,440.251 451.5,441C 476.381,456.215 496.215,476.381 511,501.5C 514.637,507.433 517.137,513.766 518.5,520.5C 508.116,523.466 497.782,526.3 487.5,529C 483.283,518.566 478.283,508.566 472.5,499C 468.086,498.035 466.419,499.868 467.5,504.5C 469.408,521.823 471.075,539.156 472.5,556.5 Z"/></g>
<g><path style="opacity:1" fill="#8b8b8b" d="M 221.5,443.5 C 223.404,443.738 224.738,444.738 225.5,446.5C 223.596,446.262 222.262,445.262 221.5,443.5 Z"/></g>
<g><path style="opacity:1" fill="#d5e9e5" d="M 393.5,448.5 C 399.7,447.658 405.367,445.658 410.5,442.5C 411.708,441.766 413.041,441.433 414.5,441.5C 407.391,461.007 399.224,480.007 390,498.5C 386.554,488.942 382.054,479.942 376.5,471.5C 378.731,465.014 380.064,458.347 380.5,451.5C 384.706,450.032 389.039,449.032 393.5,448.5 Z"/></g>
<g><path style="opacity:1" fill="#95a29f" d="M 410.5,442.5 C 405.367,445.658 399.7,447.658 393.5,448.5C 398.941,446.129 404.608,444.129 410.5,442.5 Z"/></g>
<g><path style="opacity:1" fill="#d8887a" d="M 234.5,443.5 C 240.868,446.012 247.368,448.012 254,449.5C 255.699,449.613 256.866,448.947 257.5,447.5C 267.67,450.317 277.67,453.317 287.5,456.5C 268.579,456.352 250.912,452.019 234.5,443.5 Z"/></g>
<g><path style="opacity:1" fill="#717171" d="M 233.5,450.5 C 235.262,450.357 236.929,450.691 238.5,451.5C 239.521,452.002 239.688,452.668 239,453.5C 235.949,456.109 232.449,457.775 228.5,458.5C 231.135,456.177 234.135,454.344 237.5,453C 235.934,452.392 234.6,451.558 233.5,450.5 Z"/></g>
<g><path style="opacity:1" fill="#342520" d="M 359.5,450.5 C 359.389,451.117 359.056,451.617 358.5,452C 349.896,453.712 341.229,454.879 332.5,455.5C 341.317,453.528 350.317,451.862 359.5,450.5 Z"/></g>
<g><path style="opacity:1" fill="#875246" d="M 372.5,461.5 C 372.66,459.801 372.494,458.134 372,456.5C 369.792,461.465 367.792,466.465 366,471.5C 364.333,473.167 362.667,474.833 361,476.5C 359.738,490.47 359.238,504.47 359.5,518.5C 356.546,516.72 353.713,514.72 351,512.5C 351.439,500.169 352.106,487.836 353,475.5C 347.891,471.23 343.725,466.23 340.5,460.5C 351.973,458.488 363.306,456.155 374.5,453.5C 374.706,456.495 374.04,459.162 372.5,461.5 Z"/></g>
<g><path style="opacity:1" fill="#868686" d="M 226.5,459.5 C 226.027,460.906 225.027,461.573 223.5,461.5C 223.973,460.094 224.973,459.427 226.5,459.5 Z"/></g>
<g><path style="opacity:1" fill="#f8f8f1" d="M 237.5,489.5 C 236.671,496.321 236.171,503.321 236,510.5C 230.843,516.99 226.509,523.99 223,531.5C 212.435,556.306 206.435,582.306 205,609.5C 204.5,623.496 204.333,637.496 204.5,651.5C 204.5,651.833 204.5,652.167 204.5,652.5C 200.183,652.083 196.183,652.75 192.5,654.5C 190.5,654.5 188.5,654.5 186.5,654.5C 185.5,654.5 184.5,654.5 183.5,654.5C 183.247,650.96 182.581,647.627 181.5,644.5C 179.536,612.072 182.202,580.072 189.5,548.5C 190.924,546.485 191.59,544.152 191.5,541.5C 193.365,532.905 196.032,524.572 199.5,516.5C 201.834,514.824 202.834,512.491 202.5,509.5C 205.931,497.63 210.765,486.297 217,475.5C 223.741,468.547 231.574,463.214 240.5,459.5C 240.833,460.167 241.167,460.833 241.5,461.5C 239.988,470.953 238.654,480.287 237.5,489.5 Z"/></g>
<g><path style="opacity:1" fill="#777777" d="M 223.5,461.5 C 222.738,463.262 221.404,464.262 219.5,464.5C 220.262,462.738 221.596,461.738 223.5,461.5 Z"/></g>
<g><path style="opacity:1" fill="#d7d6d4" d="M 261.5,459.5 C 266.336,459.734 271.003,460.734 275.5,462.5C 281.697,468.863 288.364,474.697 295.5,480C 318.481,497.157 341.815,513.824 365.5,530C 369.702,533.867 373.535,538.033 377,542.5C 377.825,546.211 377.659,549.878 376.5,553.5C 355.427,543.818 333.761,535.818 311.5,529.5C 312.647,523.086 314.647,516.92 317.5,511C 317.355,510.228 317.022,509.561 316.5,509C 304.239,509.45 292.072,510.95 280,513.5C 272.922,500.307 266.589,486.641 261,472.5C 260.466,468.141 260.632,463.808 261.5,459.5 Z"/></g>
<g><path style="opacity:1" fill="#505956" d="M 311.5,462.5 C 303.167,463.167 294.833,463.833 286.5,464.5C 285.957,464.44 285.624,464.107 285.5,463.5C 294.141,462.502 302.808,462.169 311.5,462.5 Z"/></g>
<g><path style="opacity:1" fill="#404040" d="M 438.5,436.5 C 439.75,436.577 440.583,437.244 441,438.5C 454.221,469.504 458.888,501.838 455,535.5C 454.624,541.336 453.457,547.003 451.5,552.5C 458.378,512.615 454.044,473.949 438.5,436.5 Z"/></g>
<g><path style="opacity:1" fill="#a7a7a7" d="M 489.5,462.5 C 490.833,462.5 491.5,463.167 491.5,464.5C 490.5,464.167 489.833,463.5 489.5,462.5 Z"/></g>
<g><path style="opacity:1" fill="#d4e8e3" d="M 286.5,464.5 C 294.833,463.833 303.167,463.167 311.5,462.5C 318.863,462.414 326.196,462.247 333.5,462C 337.215,466.593 341.048,471.093 345,475.5C 346.308,477.134 347.142,478.968 347.5,481C 346.246,489.847 344.913,498.68 343.5,507.5C 323.894,493.875 304.894,479.542 286.5,464.5 Z"/></g>
<g><path style="opacity:1" fill="#717171" d="M 219.5,464.5 C 218.738,466.262 217.404,467.262 215.5,467.5C 216.262,465.738 217.596,464.738 219.5,464.5 Z"/></g>
<g><path style="opacity:1" fill="#ae685a" d="M 372.5,461.5 C 372.046,464.865 371.38,468.198 370.5,471.5C 370.719,473.693 371.385,475.693 372.5,477.5C 373.715,482.825 376.048,487.658 379.5,492C 381.267,497.8 382.933,503.634 384.5,509.5C 381.721,516.392 378.387,523.059 374.5,529.5C 369.255,526.056 364.255,522.39 359.5,518.5C 359.238,504.47 359.738,490.47 361,476.5C 362.667,474.833 364.333,473.167 366,471.5C 367.792,466.465 369.792,461.465 372,456.5C 372.494,458.134 372.66,459.801 372.5,461.5 Z"/></g>
<g><path style="opacity:1" fill="#707070" d="M 493.5,466.5 C 495.587,467.585 496.92,469.251 497.5,471.5C 495.413,470.415 494.08,468.749 493.5,466.5 Z"/></g>
<g><path style="opacity:1" fill="#8c8c8c" d="M 215.5,467.5 C 214.92,469.749 213.587,471.415 211.5,472.5C 212.08,470.251 213.413,468.585 215.5,467.5 Z"/></g>
<g><path style="opacity:1" fill="#6c6c6c" d="M 497.5,471.5 C 499.914,472.911 501.581,474.911 502.5,477.5C 500.086,476.089 498.419,474.089 497.5,471.5 Z"/></g>
<g><path style="opacity:1" fill="#fbfbf3" d="M 442.5,466.5 C 442.833,468.5 443.167,470.5 443.5,472.5C 444.071,480.416 445.404,488.082 447.5,495.5C 447.5,495.833 447.5,496.167 447.5,496.5C 447.656,510.849 447.323,525.183 446.5,539.5C 436.692,541.85 429.192,547.517 424,556.5C 420.097,572.526 425.597,583.692 440.5,590C 456.191,592.498 466.525,586.331 471.5,571.5C 472.167,569.833 472.833,568.167 473.5,566.5C 474.11,572.815 474.443,579.149 474.5,585.5C 474.793,601.34 475.46,617.006 476.5,632.5C 478.597,642.414 480.263,652.414 481.5,662.5C 481.24,668.194 482.24,673.527 484.5,678.5C 484.844,682.894 485.51,687.228 486.5,691.5C 453.167,691.5 419.833,691.5 386.5,691.5C 386.677,645.477 386.177,599.477 385,553.5C 398.667,538.5 413,524.167 428,510.5C 428.667,509.167 428.667,507.833 428,506.5C 426.293,504.963 424.793,503.296 423.5,501.5C 425.508,499.917 427.841,498.917 430.5,498.5C 434.091,498.048 437.425,497.048 440.5,495.5C 441.167,485.833 441.833,476.167 442.5,466.5 Z"/></g>
<g><path style="opacity:1" fill="#696a66" d="M 457.5,471.5 C 458.924,473.515 459.59,475.848 459.5,478.5C 458.076,476.485 457.41,474.152 457.5,471.5 Z"/></g>
<g><path style="opacity:1" fill="#969696" d="M 209.5,476.5 C 209.573,478.027 208.906,479.027 207.5,479.5C 207.427,477.973 208.094,476.973 209.5,476.5 Z"/></g>
<g><path style="opacity:1" fill="#979894" d="M 255.5,476.5 C 254.833,477.5 254.167,478.5 253.5,479.5C 253.201,477.396 253.534,475.396 254.5,473.5C 255.386,474.325 255.719,475.325 255.5,476.5 Z"/></g>
<g><path style="opacity:1" fill="#fbfbf3" d="M 255.5,476.5 C 262.263,490.531 268.93,504.697 275.5,519C 285.524,518.298 295.524,517.131 305.5,515.5C 307.179,515.285 308.179,515.952 308.5,517.5C 306.678,521.131 305.345,524.964 304.5,529C 304.615,530.895 305.282,532.562 306.5,534C 330.888,540.849 354.554,549.682 377.5,560.5C 377.821,565.695 377.487,570.695 376.5,575.5C 372.176,570.818 366.842,569.318 360.5,571C 359.29,572.039 358.29,573.206 357.5,574.5C 356.883,574.611 356.383,574.944 356,575.5C 355.195,578.696 355.362,581.696 356.5,584.5C 358.965,591.082 363.632,593.249 370.5,591C 372.323,590.003 373.99,588.836 375.5,587.5C 376.117,587.389 376.617,587.056 377,586.5C 377.333,588.167 377.667,589.833 378,591.5C 378.5,624.832 378.667,658.165 378.5,691.5C 341.5,691.5 304.5,691.5 267.5,691.5C 268.933,677.508 270.433,663.508 272,649.5C 272.5,636.171 272.667,622.837 272.5,609.5C 276.955,608.71 279.289,606.044 279.5,601.5C 276.337,591.906 274.504,581.906 274,571.5C 272.058,565.613 269.558,559.946 266.5,554.5C 265.12,543.432 263.287,532.432 261,521.5C 258.318,518.65 255.484,515.984 252.5,513.5C 251.52,510.914 251.187,508.247 251.5,505.5C 251.696,496.745 252.363,488.079 253.5,479.5C 254.167,478.5 254.833,477.5 255.5,476.5 Z"/></g>
<g><path style="opacity:1" fill="#999896" d="M 433.5,452.5 C 435.459,465.471 435.792,478.471 434.5,491.5C 434.318,478.495 433.985,465.495 433.5,452.5 Z"/></g>
<g><path style="opacity:1" fill="#a9a9a5" d="M 443.5,472.5 C 445.838,479.869 447.171,487.536 447.5,495.5C 445.404,488.082 444.071,480.416 443.5,472.5 Z"/></g>
<g><path style="opacity:1" fill="#777777" d="M 503.5,478.5 C 505.262,479.262 506.262,480.596 506.5,482.5C 504.738,481.738 503.738,480.404 503.5,478.5 Z"/></g>
<g><path style="opacity:1" fill="#434441" d="M 442.5,466.5 C 441.833,476.167 441.167,485.833 440.5,495.5C 440.333,484.495 440.5,473.495 441,462.5C 441.41,463.901 441.91,465.234 442.5,466.5 Z"/></g>
<g><path style="opacity:1" fill="#a1a1a1" d="M 206.5,482.5 C 206.573,484.027 205.906,485.027 204.5,485.5C 204.427,483.973 205.094,482.973 206.5,482.5 Z"/></g>
<g><path style="opacity:1" fill="#7e7e7e" d="M 506.5,482.5 C 508.262,483.262 509.262,484.596 509.5,486.5C 507.738,485.738 506.738,484.404 506.5,482.5 Z"/></g>
<g><path style="opacity:1" fill="#8e594d" d="M 372.5,477.5 C 379.095,485.864 383.428,495.364 385.5,506C 385.486,507.385 385.152,508.551 384.5,509.5C 382.933,503.634 381.267,497.8 379.5,492C 376.048,487.658 373.715,482.825 372.5,477.5 Z"/></g>
<g><path style="opacity:1" fill="#989899" d="M 509.5,486.5 C 510.906,486.973 511.573,487.973 511.5,489.5C 510.094,489.027 509.427,488.027 509.5,486.5 Z"/></g>
<g><path style="opacity:1" fill="#999999" d="M 511.5,489.5 C 512.906,489.973 513.573,490.973 513.5,492.5C 512.094,492.027 511.427,491.027 511.5,489.5 Z"/></g>
<g><path style="opacity:1" fill="#727272" d="M 202.5,490.5 C 202.88,492.698 202.213,494.365 200.5,495.5C 200.796,493.597 201.463,491.93 202.5,490.5 Z"/></g>
<g><path style="opacity:1" fill="#686868" d="M 600.5,495.5 C 593.148,497.504 585.815,499.504 578.5,501.5C 585.484,497.607 592.817,495.607 600.5,495.5 Z"/></g>
<g><path style="opacity:1" fill="#808080" d="M 601.5,495.5 C 603.99,498.626 605.323,502.292 605.5,506.5C 603.796,503.061 602.462,499.395 601.5,495.5 Z"/></g>
<g><path style="opacity:1" fill="#7b7b7b" d="M 200.5,495.5 C 200.88,497.698 200.213,499.365 198.5,500.5C 198.796,498.597 199.463,496.93 200.5,495.5 Z"/></g>
<g><path style="opacity:1" fill="#939490" d="M 430.5,498.5 C 427.841,498.917 425.508,499.917 423.5,501.5C 422.596,500.791 422.263,499.791 422.5,498.5C 425.167,498.5 427.833,498.5 430.5,498.5 Z"/></g>
<g><path style="opacity:1" fill="#8c8c8c" d="M 515.5,496.5 C 516.906,496.973 517.573,497.973 517.5,499.5C 516.094,499.027 515.427,498.027 515.5,496.5 Z"/></g>
<g><path style="opacity:1" fill="#6b6b6b" d="M 578.5,501.5 C 575.495,503.277 572.162,504.277 568.5,504.5C 571.505,502.723 574.838,501.723 578.5,501.5 Z"/></g>
<g><path style="opacity:1" fill="#737373" d="M 568.5,504.5 C 565.495,506.277 562.162,507.277 558.5,507.5C 561.505,505.723 564.838,504.723 568.5,504.5 Z"/></g>
<g><path style="opacity:1" fill="#767676" d="M 557.5,507.5 C 551.959,510.458 545.959,512.458 539.5,513.5C 545.216,510.928 551.216,508.928 557.5,507.5 Z"/></g>
<g><path style="opacity:1" fill="#696969" d="M 196.5,506.5 C 196.88,508.698 196.213,510.365 194.5,511.5C 194.796,509.597 195.463,507.93 196.5,506.5 Z"/></g>
<g><path style="opacity:1" fill="#737373" d="M 605.5,506.5 C 607.977,511.146 609.644,516.146 610.5,521.5C 607.86,516.915 606.194,511.915 605.5,506.5 Z"/></g>
<g><path style="opacity:1" fill="#aaaba7" d="M 202.5,509.5 C 202.834,512.491 201.834,514.824 199.5,516.5C 199.935,513.843 200.935,511.509 202.5,509.5 Z"/></g>
<g><path style="opacity:1" fill="#c5c6c0" d="M 237.5,489.5 C 237.5,507.167 237.5,524.833 237.5,542.5C 234.86,542.954 232.527,544.121 230.5,546C 223.675,553.151 219.675,561.651 218.5,571.5C 216.741,580.267 216.075,589.267 216.5,598.5C 210.673,608.18 213.34,613.514 224.5,614.5C 222.792,626.791 221.459,639.124 220.5,651.5C 215.167,651.5 209.833,651.5 204.5,651.5C 204.333,637.496 204.5,623.496 205,609.5C 206.435,582.306 212.435,556.306 223,531.5C 226.509,523.99 230.843,516.99 236,510.5C 236.171,503.321 236.671,496.321 237.5,489.5 Z"/></g>
<g><path style="opacity:1" fill="#826e5a" d="M 593.5,501.5 C 595.467,501.261 597.301,501.594 599,502.5C 601.777,509.831 603.944,517.331 605.5,525C 605.562,527.965 604.395,528.798 602,527.5C 599.903,521.978 598.403,516.312 597.5,510.5C 592.751,510.803 588.084,511.637 583.5,513C 548.42,524.75 513.087,535.583 477.5,545.5C 477.232,542.881 477.565,540.381 478.5,538C 517.033,525.96 555.367,513.793 593.5,501.5 Z"/></g>
<g><path style="opacity:1" fill="#7e7e7e" d="M 194.5,511.5 C 194.655,514.716 193.655,517.383 191.5,519.5C 192.129,516.603 193.129,513.936 194.5,511.5 Z"/></g>
<g><path style="opacity:1" fill="#c1c2bc" d="M 251.5,505.5 C 251.187,508.247 251.52,510.914 252.5,513.5C 255.484,515.984 258.318,518.65 261,521.5C 263.287,532.432 265.12,543.432 266.5,554.5C 262.196,549.364 257.363,544.698 252,540.5C 250.921,534.063 250.421,527.563 250.5,521C 250.501,515.656 250.834,510.489 251.5,505.5 Z"/></g>
<g><path style="opacity:1" fill="#696a67" d="M 305.5,515.5 C 306.568,514.566 307.901,514.232 309.5,514.5C 309.737,515.791 309.404,516.791 308.5,517.5C 308.179,515.952 307.179,515.285 305.5,515.5 Z"/></g>
<g><path style="opacity:1" fill="#656565" d="M 521.5,508.5 C 523.46,511.177 524.96,514.177 526,517.5C 530.004,515.665 534.17,514.332 538.5,513.5C 534.633,515.629 530.466,517.296 526,518.5C 523.151,515.8 521.651,512.466 521.5,508.5 Z"/></g>
<g><path style="opacity:1" fill="#faf0a3" d="M 591.5,516.5 C 592.497,516.47 593.164,516.97 593.5,518C 594.41,520.899 595.41,523.733 596.5,526.5C 596.5,527.833 596.5,529.167 596.5,530.5C 595.209,530.263 594.209,530.596 593.5,531.5C 593.674,533.861 594.007,536.194 594.5,538.5C 594.723,542.162 595.723,545.495 597.5,548.5C 598.958,551.327 599.958,554.327 600.5,557.5C 600.723,561.162 601.723,564.495 603.5,567.5C 606.146,575.072 608.646,582.739 611,590.5C 613.041,591.423 615.208,591.756 617.5,591.5C 617.5,592.5 617.5,593.5 617.5,594.5C 618.167,598.167 618.833,601.833 619.5,605.5C 616.238,606.752 612.905,607.752 609.5,608.5C 605.239,609.051 601.072,609.051 597,608.5C 595.823,610.176 594.323,611.509 592.5,612.5C 584.935,615.066 577.269,617.233 569.5,619C 567.111,619.739 565.111,620.905 563.5,622.5C 538.01,630.996 512.343,639.329 486.5,647.5C 484.367,642.073 482.867,636.407 482,630.5C 481.5,616.837 481.333,603.171 481.5,589.5C 481.479,582.626 480.813,575.959 479.5,569.5C 478.998,563.495 478.832,557.495 479,551.5C 481.087,550.603 483.254,549.936 485.5,549.5C 491.177,548.808 496.844,547.975 502.5,547C 504.693,545.936 506.693,544.602 508.5,543C 512.833,542 517.167,541 521.5,540C 522.381,539.292 523.047,538.458 523.5,537.5C 527.162,537.277 530.495,536.277 533.5,534.5C 543.375,531.097 553.375,528.097 563.5,525.5C 573.333,523.55 582.666,520.55 591.5,516.5 Z"/></g>
<g><path style="opacity:1" fill="#d5d094" d="M 591.5,516.5 C 582.666,520.55 573.333,523.55 563.5,525.5C 572.562,521.896 581.896,518.896 591.5,516.5 Z"/></g>
<g><path style="opacity:1" fill="#5e5e5e" d="M 477.5,523.5 C 476.549,524.919 476.216,526.585 476.5,528.5C 475.366,526.034 475.199,523.367 476,520.5C 477.039,521.244 477.539,522.244 477.5,523.5 Z"/></g>
<g><path style="opacity:1" fill="#6c6c6c" d="M 191.5,520.5 C 191.514,524.475 190.181,527.808 187.5,530.5C 188.321,526.873 189.654,523.54 191.5,520.5 Z"/></g>
<g><path style="opacity:1" fill="#7a7a7a" d="M 611.5,525.5 C 614.072,531.216 616.072,537.216 617.5,543.5C 614.527,537.915 612.527,531.915 611.5,525.5 Z"/></g>
<g><path style="opacity:1" fill="#cacaca" d="M 477.5,523.5 C 479.31,526.145 480.31,529.145 480.5,532.5C 479.167,532.5 477.833,532.5 476.5,532.5C 476.5,531.167 476.5,529.833 476.5,528.5C 476.216,526.585 476.549,524.919 477.5,523.5 Z"/></g>
<g><path style="opacity:1" fill="#4c4c31" d="M 596.5,526.5 C 597.451,527.919 597.784,529.585 597.5,531.5C 596.167,531.5 594.833,531.5 593.5,531.5C 594.209,530.596 595.209,530.263 596.5,530.5C 596.5,529.167 596.5,527.833 596.5,526.5 Z"/></g>
<g><path style="opacity:1" fill="#777777" d="M 187.5,530.5 C 187.277,534.162 186.277,537.495 184.5,540.5C 184.59,536.786 185.59,533.452 187.5,530.5 Z"/></g>
<g><path style="opacity:1" fill="#828282" d="M 604.5,533.5 C 602.257,534.132 600.591,535.466 599.5,537.5C 598.224,536.614 598.224,535.614 599.5,534.5C 601.071,533.691 602.738,533.357 604.5,533.5 Z"/></g>
<g><path style="opacity:1" fill="#d9d9d9" d="M 604.5,533.5 C 604.833,533.5 605.167,533.5 605.5,533.5C 606.609,533.557 607.609,533.89 608.5,534.5C 609.833,539.167 611.167,543.833 612.5,548.5C 612.723,552.162 613.723,555.495 615.5,558.5C 617.095,561.285 618.095,564.285 618.5,567.5C 618.723,571.162 619.723,574.495 621.5,577.5C 622.909,579.305 623.409,581.305 623,583.5C 620.262,584.482 617.428,585.148 614.5,585.5C 609.807,569.391 604.807,553.391 599.5,537.5C 600.591,535.466 602.257,534.132 604.5,533.5 Z"/></g>
<g><path style="opacity:1" fill="#6e6e6e" d="M 605.5,533.5 C 606.947,532.115 607.947,532.448 608.5,534.5C 607.609,533.89 606.609,533.557 605.5,533.5 Z"/></g>
<g><path style="opacity:1" fill="#13120a" d="M 584.5,581.5 C 584.59,578.848 583.924,576.515 582.5,574.5C 582.405,572.214 581.738,570.214 580.5,568.5C 579.276,561.833 577.276,555.499 574.5,549.5C 574.277,545.838 573.277,542.505 571.5,539.5C 569.4,534.768 570.733,533.101 575.5,534.5C 582.246,555.236 589.079,575.903 596,596.5C 596.667,598.5 596.667,600.5 596,602.5C 594.062,603.86 592.396,603.527 591,601.5C 589.498,594.496 587.331,587.829 584.5,581.5 Z"/></g>
<g><path style="opacity:1" fill="#9c986b" d="M 533.5,534.5 C 530.495,536.277 527.162,537.277 523.5,537.5C 526.505,535.723 529.838,534.723 533.5,534.5 Z"/></g>
<g><path style="opacity:1" fill="#686864" d="M 447.5,496.5 C 448.166,502.157 448.499,507.99 448.5,514C 448.682,522.72 448.016,531.22 446.5,539.5C 447.323,525.183 447.656,510.849 447.5,496.5 Z"/></g>
<g><path style="opacity:1" fill="#100f07" d="M 564.5,562.5 C 564.723,566.162 565.723,569.495 567.5,572.5C 568.167,574.5 568.833,576.5 569.5,578.5C 570.057,583.165 571.39,587.498 573.5,591.5C 574.738,593.214 575.405,595.214 575.5,597.5C 576.167,601.167 576.833,604.833 577.5,608.5C 576.116,609.801 574.616,609.801 573,608.5C 570.123,598.299 566.956,588.299 563.5,578.5C 562.61,572.834 560.943,567.5 558.5,562.5C 558.405,560.214 557.738,558.214 556.5,556.5C 556.277,552.838 555.277,549.505 553.5,546.5C 552.677,544.545 552.51,542.545 553,540.5C 554.938,539.14 556.604,539.473 558,541.5C 560.017,548.576 562.184,555.576 564.5,562.5 Z"/></g>
<g><path style="opacity:1" fill="#89865d" d="M 594.5,538.5 C 596.277,541.505 597.277,544.838 597.5,548.5C 595.723,545.495 594.723,542.162 594.5,538.5 Z"/></g>
<g><path style="opacity:1" fill="#807d56" d="M 571.5,539.5 C 573.277,542.505 574.277,545.838 574.5,549.5C 572.723,546.495 571.723,543.162 571.5,539.5 Z"/></g>
<g><path style="opacity:1" fill="#454545" d="M 249.5,454.5 C 250.376,454.369 251.043,454.702 251.5,455.5C 249.828,460.349 248.662,465.349 248,470.5C 245.449,492.439 244.449,514.439 245,536.5C 245.413,539.232 246.08,541.899 247,544.5C 264.981,557.474 272.981,575.14 271,597.5C 273.039,598.978 273.872,600.978 273.5,603.5C 271.167,603.5 268.833,603.5 266.5,603.5C 269.958,588.328 267.791,573.994 260,560.5C 247.878,546.162 237.545,547.162 229,563.5C 227.384,567.347 226.384,571.347 226,575.5C 225.459,586.199 225.459,596.865 226,607.5C 224,608.833 222,608.833 220,607.5C 219.836,604.478 220.836,601.811 223,599.5C 222.91,588.047 223.91,576.714 226,565.5C 228.262,558.248 232.429,552.415 238.5,548C 240.025,546.991 241.692,546.491 243.5,546.5C 243.333,525.831 243.5,505.164 244,484.5C 244.893,474.274 246.727,464.274 249.5,454.5 Z"/></g>
<g><path style="opacity:1" fill="#868686" d="M 184.5,540.5 C 184.59,543.152 183.924,545.485 182.5,547.5C 182.41,544.848 183.076,542.515 184.5,540.5 Z"/></g>
<g><path style="opacity:1" fill="#dad495" d="M 523.5,537.5 C 523.047,538.458 522.381,539.292 521.5,540C 517.167,541 512.833,542 508.5,543C 506.693,544.602 504.693,545.936 502.5,547C 496.844,547.975 491.177,548.808 485.5,549.5C 497.887,544.993 510.553,540.993 523.5,537.5 Z"/></g>
<g><path style="opacity:1" fill="#121109" d="M 550.5,582.5 C 551.057,587.165 552.39,591.498 554.5,595.5C 557.561,601.368 559.228,607.701 559.5,614.5C 556.762,615.035 554.928,614.035 554,611.5C 550.43,599.626 546.597,587.959 542.5,576.5C 542.277,572.838 541.277,569.505 539.5,566.5C 539.125,564.302 538.458,562.302 537.5,560.5C 536.5,555.833 535.5,551.167 534.5,546.5C 535.884,545.199 537.384,545.199 539,546.5C 542.851,558.597 546.685,570.597 550.5,582.5 Z"/></g>
<g><path style="opacity:1" fill="#9f9f9b" d="M 191.5,541.5 C 191.59,544.152 190.924,546.485 189.5,548.5C 189.41,545.848 190.076,543.515 191.5,541.5 Z"/></g>
<g><path style="opacity:1" fill="#7e7e7e" d="M 617.5,544.5 C 619.739,549.216 621.405,554.216 622.5,559.5C 619.86,554.915 618.194,549.915 617.5,544.5 Z"/></g>
<g><path style="opacity:1" fill="#89855c" d="M 553.5,546.5 C 555.277,549.505 556.277,552.838 556.5,556.5C 554.723,553.495 553.723,550.162 553.5,546.5 Z"/></g>
<g><path style="opacity:1" fill="#959595" d="M 441.5,548.5 C 442.5,548.5 443.5,548.5 444.5,548.5C 442.752,552.78 439.919,556.446 436,559.5C 433.508,573.669 439.341,580.169 453.5,579C 461.505,575.351 464.339,569.184 462,560.5C 460.818,558.656 459.651,556.823 458.5,555C 458.833,554.5 459.167,554 459.5,553.5C 467.988,563.15 467.321,572.317 457.5,581C 444.511,587.339 435.344,583.839 430,570.5C 428.314,560.203 432.147,552.869 441.5,548.5 Z"/></g>
<g><path style="opacity:1" fill="#979365" d="M 534.5,546.5 C 535.5,551.167 536.5,555.833 537.5,560.5C 534.784,556.064 533.784,551.398 534.5,546.5 Z"/></g>
<g><path style="opacity:1" fill="#868686" d="M 612.5,548.5 C 614.277,551.505 615.277,554.838 615.5,558.5C 613.723,555.495 612.723,552.162 612.5,548.5 Z"/></g>
<g><path style="opacity:1" fill="#908c61" d="M 574.5,549.5 C 577.276,555.499 579.276,561.833 580.5,568.5C 577.724,562.501 575.724,556.167 574.5,549.5 Z"/></g>
<g><path style="opacity:1" fill="#c6c6c1" d="M 248.5,558.5 C 251.075,559.568 253.242,561.235 255,563.5C 259.896,571.644 262.396,580.477 262.5,590C 261.408,595.435 260.908,600.935 261,606.5C 261.833,607.333 262.667,608.167 263.5,609C 266.482,609.498 269.482,609.665 272.5,609.5C 272.667,622.837 272.5,636.171 272,649.5C 270.433,663.508 268.933,677.508 267.5,691.5C 260.833,691.5 254.167,691.5 247.5,691.5C 248.644,649.669 248.644,608.002 247.5,566.5C 247.194,563.615 247.527,560.948 248.5,558.5 Z"/></g>
<g><path style="opacity:1" fill="#4d4d4d" d="M 446.5,558.5 C 454.558,558.373 457.391,562.04 455,569.5C 448.653,575.455 444.153,574.288 441.5,566C 441.831,562.52 443.498,560.02 446.5,558.5 Z"/></g>
<g><path style="opacity:1" fill="#827f57" d="M 600.5,557.5 C 602.277,560.505 603.277,563.838 603.5,567.5C 601.723,564.495 600.723,561.162 600.5,557.5 Z"/></g>
<g><path style="opacity:1" fill="#b7b8b2" d="M 239.5,557.5 C 241.067,560.917 241.567,564.583 241,568.5C 238.294,576.034 235.294,583.368 232,590.5C 230.273,578.418 232.773,567.418 239.5,557.5 Z"/></g>
<g><path style="opacity:1" fill="#b1b1af" d="M 472.5,556.5 C 473.479,559.625 473.813,562.958 473.5,566.5C 472.833,568.167 472.167,569.833 471.5,571.5C 471.5,567.5 471.5,563.5 471.5,559.5C 472.404,558.791 472.737,557.791 472.5,556.5 Z"/></g>
<g><path style="opacity:1" fill="#60615d" d="M 248.5,558.5 C 247.527,560.948 247.194,563.615 247.5,566.5C 246.197,563.645 246.197,560.645 247.5,557.5C 248.107,557.624 248.44,557.957 248.5,558.5 Z"/></g>
<g><path style="opacity:1" fill="#8e8a5f" d="M 558.5,562.5 C 560.943,567.5 562.61,572.834 563.5,578.5C 561.057,573.5 559.39,568.166 558.5,562.5 Z"/></g>
<g><path style="opacity:1" fill="#625f3e" d="M 564.5,562.5 C 566.277,565.505 567.277,568.838 567.5,572.5C 565.723,569.495 564.723,566.162 564.5,562.5 Z"/></g>
<g><path style="opacity:1" fill="#a29e71" d="M 539.5,566.5 C 541.277,569.505 542.277,572.838 542.5,576.5C 540.723,573.495 539.723,570.162 539.5,566.5 Z"/></g>
<g><path style="opacity:1" fill="#828282" d="M 624.5,566.5 C 626.405,570.216 627.739,574.216 628.5,578.5C 626.194,574.915 624.861,570.915 624.5,566.5 Z"/></g>
<g><path style="opacity:1" fill="#808080" d="M 618.5,567.5 C 620.277,570.505 621.277,573.838 621.5,577.5C 619.723,574.495 618.723,571.162 618.5,567.5 Z"/></g>
<g><path style="opacity:1" fill="#10100f" d="M 376.5,575.5 C 376.693,579.566 376.36,583.566 375.5,587.5C 373.99,588.836 372.323,590.003 370.5,591C 363.632,593.249 358.965,591.082 356.5,584.5C 356.342,581.098 356.676,577.764 357.5,574.5C 358.29,573.206 359.29,572.039 360.5,571C 366.842,569.318 372.176,570.818 376.5,575.5 Z"/></g>
<g><path style="opacity:1" fill="#999669" d="M 582.5,574.5 C 583.924,576.515 584.59,578.848 584.5,581.5C 583.076,579.485 582.41,577.152 582.5,574.5 Z"/></g>
<g><path style="opacity:1" fill="#e0e0db" d="M 364.5,576.5 C 370.488,576.664 371.821,579.164 368.5,584C 362.202,584.495 360.868,581.995 364.5,576.5 Z"/></g>
<g><path style="opacity:1" fill="#5c5c59" d="M 357.5,574.5 C 356.676,577.764 356.342,581.098 356.5,584.5C 355.362,581.696 355.195,578.696 356,575.5C 356.383,574.944 356.883,574.611 357.5,574.5 Z"/></g>
<g><path style="opacity:1" fill="#595537" d="M 569.5,578.5 C 571.61,582.502 572.943,586.835 573.5,591.5C 571.39,587.498 570.057,583.165 569.5,578.5 Z"/></g>
<g><path style="opacity:1" fill="#747474" d="M 178.5,569.5 C 178.624,575.069 177.957,580.402 176.5,585.5C 176.376,579.931 177.043,574.598 178.5,569.5 Z"/></g>
<g><path style="opacity:1" fill="#62625e" d="M 218.5,571.5 C 218.108,580.67 217.442,589.67 216.5,598.5C 216.075,589.267 216.741,580.267 218.5,571.5 Z"/></g>
<g><path style="opacity:1" fill="#4a472d" d="M 550.5,582.5 C 552.61,586.502 553.943,590.835 554.5,595.5C 552.39,591.498 551.057,587.165 550.5,582.5 Z"/></g>
<g><path style="opacity:1" fill="#5a5a5a" d="M 629.5,583.5 C 631.31,586.145 632.31,589.145 632.5,592.5C 630.528,589.916 629.528,586.916 629.5,583.5 Z"/></g>
<g><path style="opacity:1" fill="#858157" d="M 479.5,569.5 C 480.813,575.959 481.479,582.626 481.5,589.5C 480.064,583.053 479.397,576.386 479.5,569.5 Z"/></g>
<g><path style="opacity:1" fill="#c3c3c3" d="M 240.5,587.5 C 241.451,588.919 241.784,590.585 241.5,592.5C 240.833,592.167 240.167,591.833 239.5,591.5C 239.433,590.041 239.766,588.708 240.5,587.5 Z"/></g>
<g><path style="opacity:1" fill="#787878" d="M 632.5,592.5 C 634.68,595.381 635.68,598.714 635.5,602.5C 633.723,599.495 632.723,596.162 632.5,592.5 Z"/></g>
<g><path style="opacity:1" fill="#939491" d="M 238.5,593.5 C 237.541,597.383 236.208,601.05 234.5,604.5C 234.667,600.327 236,596.66 238.5,593.5 Z"/></g>
<g><path style="opacity:1" fill="#7d7d7d" d="M 240.5,587.5 C 240.56,586.957 240.893,586.624 241.5,586.5C 242.829,613.664 242.829,640.664 241.5,667.5C 241.5,642.5 241.5,617.5 241.5,592.5C 241.784,590.585 241.451,588.919 240.5,587.5 Z"/></g>
<g><path style="opacity:1" fill="#9a976a" d="M 617.5,594.5 C 619.891,597.963 620.558,601.629 619.5,605.5C 618.833,601.833 618.167,598.167 617.5,594.5 Z"/></g>
<g><path style="opacity:1" fill="#514d31" d="M 575.5,597.5 C 577.891,600.963 578.558,604.629 577.5,608.5C 576.833,604.833 576.167,601.167 575.5,597.5 Z"/></g>
<g><path style="opacity:1" fill="#909090" d="M 176.5,585.5 C 176.546,592.05 175.879,598.383 174.5,604.5C 174.454,597.95 175.121,591.617 176.5,585.5 Z"/></g>
<g><path style="opacity:1" fill="#696a6a" d="M 635.5,602.5 C 637.432,606.786 639.099,611.286 640.5,616C 640.361,617.301 639.695,618.134 638.5,618.5C 637.918,613.087 636.918,607.754 635.5,602.5 Z"/></g>
<g><path style="opacity:1" fill="#ded798" d="M 609.5,608.5 C 594.644,614.058 579.311,618.724 563.5,622.5C 565.111,620.905 567.111,619.739 569.5,619C 577.269,617.233 584.935,615.066 592.5,612.5C 594.323,611.509 595.823,610.176 597,608.5C 601.072,609.051 605.239,609.051 609.5,608.5 Z"/></g>
<g><path style="opacity:1" fill="#826e5a" d="M 621.5,588.5 C 623.167,588.5 624.833,588.5 626.5,588.5C 628.378,596.767 630.711,604.934 633.5,613C 633.167,613.5 632.833,614 632.5,614.5C 610.727,621.814 588.894,628.814 567,635.5C 563.781,633.424 560.281,631.924 556.5,631C 579.261,623.08 602.261,615.747 625.5,609C 626.081,608.107 626.415,607.107 626.5,606C 624.752,600.172 623.085,594.339 621.5,588.5 Z"/></g>
<g><path style="opacity:1" fill="#929291" d="M 233.5,609.5 C 232.472,616.683 231.139,623.683 229.5,630.5C 229.453,623.096 230.786,616.096 233.5,609.5 Z"/></g>
<g><path style="opacity:1" fill="#494a46" d="M 474.5,585.5 C 476.183,600.967 476.85,616.634 476.5,632.5C 475.46,617.006 474.793,601.34 474.5,585.5 Z"/></g>
<g><path style="opacity:1" fill="#979797" d="M 638.5,618.5 C 636.898,620.074 634.898,620.741 632.5,620.5C 634.214,619.262 636.214,618.595 638.5,618.5 Z"/></g>
<g><path style="opacity:1" fill="#a3a3a3" d="M 626.5,622.5 C 623.495,624.277 620.162,625.277 616.5,625.5C 619.505,623.723 622.838,622.723 626.5,622.5 Z"/></g>
<g><path style="opacity:1" fill="#949494" d="M 593.5,632.5 C 591.208,634.267 588.542,635.267 585.5,635.5C 587.792,633.733 590.458,632.733 593.5,632.5 Z"/></g>
<g><path style="opacity:1" fill="#876a5f" d="M 556.5,636.5 C 551.384,636.431 546.384,637.098 541.5,638.5C 546.261,635.639 551.261,634.972 556.5,636.5 Z"/></g>
<g><path style="opacity:1" fill="#939293" d="M 581.5,636.5 C 579.786,637.738 577.786,638.405 575.5,638.5C 577.102,636.926 579.102,636.259 581.5,636.5 Z"/></g>
<g><path style="opacity:1" fill="#f5beaa" d="M 556.5,636.5 C 559.667,637.168 562.167,638.834 564,641.5C 566.198,655.137 560.365,661.137 546.5,659.5C 540.131,659.653 533.797,659.32 527.5,658.5C 522.68,656.854 520.514,653.521 521,648.5C 527.115,643.693 533.948,640.359 541.5,638.5C 546.384,637.098 551.384,636.431 556.5,636.5 Z"/></g>
<g><path style="opacity:1" fill="#afb0af" d="M 571.5,639.5 C 570.89,640.391 570.557,641.391 570.5,642.5C 569.115,641.053 569.448,640.053 571.5,639.5 Z"/></g>
<g><path style="opacity:1" fill="#bbbbb7" d="M 377.5,560.5 C 378.309,562.292 378.809,564.292 379,566.5C 380.163,608.159 380.663,649.825 380.5,691.5C 379.833,691.5 379.167,691.5 378.5,691.5C 378.667,658.165 378.5,624.832 378,591.5C 377.667,589.833 377.333,588.167 377,586.5C 376.617,587.056 376.117,587.389 375.5,587.5C 376.36,583.566 376.693,579.566 376.5,575.5C 377.487,570.695 377.821,565.695 377.5,560.5 Z"/></g>
<g><path style="opacity:1" fill="#84705b" d="M 512.5,643.5 C 515.957,643.667 516.29,644.667 513.5,646.5C 512.534,648.396 512.201,650.396 512.5,652.5C 504.306,655.299 495.973,657.632 487.5,659.5C 486.864,656.894 486.864,654.394 487.5,652C 496.183,649.845 504.516,647.012 512.5,643.5 Z"/></g>
<g><path style="opacity:1" fill="#696965" d="M 204.5,652.5 C 200.684,653.482 196.684,654.149 192.5,654.5C 196.183,652.75 200.183,652.083 204.5,652.5 Z"/></g>
<g><path style="opacity:1" fill="#8a8a8a" d="M 174.5,643.5 C 175.951,648.959 176.951,654.626 177.5,660.5C 175.333,655.17 174.333,649.503 174.5,643.5 Z"/></g>
<g><path style="opacity:1" fill="#797a76" d="M 181.5,644.5 C 182.581,647.627 183.247,650.96 183.5,654.5C 184.5,654.5 185.5,654.5 186.5,654.5C 185.432,655.434 184.099,655.768 182.5,655.5C 181.756,651.881 181.423,648.215 181.5,644.5 Z"/></g>
<g><path style="opacity:1" fill="#919191" d="M 514.5,657.5 C 512.786,658.738 510.786,659.405 508.5,659.5C 510.102,657.926 512.102,657.259 514.5,657.5 Z"/></g>
<g><path style="opacity:1" fill="#6b5249" d="M 527.5,658.5 C 533.797,659.32 540.131,659.653 546.5,659.5C 544.022,660.164 541.355,660.497 538.5,660.5C 534.531,660.706 530.865,660.039 527.5,658.5 Z"/></g>
<g><path style="opacity:1" fill="#f5bdaa" d="M 212.5,679.5 C 214.167,680.833 215.833,682.167 217.5,683.5C 218.11,684.391 218.443,685.391 218.5,686.5C 216.137,688.68 213.47,690.347 210.5,691.5C 207.167,691.5 203.833,691.5 200.5,691.5C 190.279,684.235 185.279,674.235 185.5,661.5C 186.833,661.5 188.167,661.5 189.5,661.5C 198.852,660.999 208.185,660.332 217.5,659.5C 217.704,662.518 218.037,665.518 218.5,668.5C 215.5,668.5 212.5,668.5 209.5,668.5C 209.335,671.85 209.502,675.183 210,678.5C 210.671,679.252 211.504,679.586 212.5,679.5 Z"/></g>
<g><path style="opacity:1" fill="#b7b8b7" d="M 566.5,659.5 C 566.027,660.906 565.027,661.573 563.5,661.5C 563.973,660.094 564.973,659.427 566.5,659.5 Z"/></g>
<g><path style="opacity:1" fill="#141413" d="M 359.5,660.5 C 366.016,659.237 371.516,660.904 376,665.5C 378.008,672.472 375.842,677.638 369.5,681C 363.419,682.858 358.919,681.025 356,675.5C 354.461,669.693 355.628,664.693 359.5,660.5 Z"/></g>
<g><path style="opacity:1" fill="#aeaeae" d="M 505.5,660.5 C 503.485,661.924 501.152,662.59 498.5,662.5C 500.515,661.076 502.848,660.41 505.5,660.5 Z"/></g>
<g><path style="opacity:1" fill="#696969" d="M 521.5,662.5 C 526.854,663.973 532.354,664.639 538,664.5C 544.507,664.214 551.007,663.881 557.5,663.5C 547.41,666.568 537.076,667.068 526.5,665C 524.509,664.626 522.842,663.793 521.5,662.5 Z"/></g>
<g><path style="opacity:1" fill="#969696" d="M 494.5,663.5 C 493.22,664.931 491.553,665.598 489.5,665.5C 489.5,666.5 489.5,667.5 489.5,668.5C 488.566,667.432 488.232,666.099 488.5,664.5C 490.5,664.167 492.5,663.833 494.5,663.5 Z"/></g>
<g><path style="opacity:1" fill="#dfb0a0" d="M 212.5,679.5 C 211.504,679.586 210.671,679.252 210,678.5C 209.502,675.183 209.335,671.85 209.5,668.5C 212.5,668.5 215.5,668.5 218.5,668.5C 218.037,665.518 217.704,662.518 217.5,659.5C 208.185,660.332 198.852,660.999 189.5,661.5C 198.879,658.972 208.545,658.139 218.5,659C 219.462,662.216 220.628,665.382 222,668.5C 222.824,671.882 222.657,675.216 221.5,678.5C 220.186,677.687 219.019,676.687 218,675.5C 217.754,670.561 215.421,668.894 211,670.5C 210.403,673.681 210.903,676.681 212.5,679.5 Z"/></g>
<g><path style="opacity:1" fill="#e6e6e1" d="M 362.5,666.5 C 369.004,666.138 370.671,668.638 367.5,674C 361.788,674.433 360.122,671.933 362.5,666.5 Z"/></g>
<g><path style="opacity:1" fill="#a9aaa5" d="M 481.5,662.5 C 483.044,667.606 484.044,672.939 484.5,678.5C 482.24,673.527 481.24,668.194 481.5,662.5 Z"/></g>
<g><path style="opacity:1" fill="#8f9090" d="M 179.5,670.5 C 181.48,675.424 183.48,680.424 185.5,685.5C 181.956,681.22 179.956,676.22 179.5,670.5 Z"/></g>
<g><path style="opacity:1" fill="#808080" d="M 241.5,667.5 C 241.5,675.5 241.5,683.5 241.5,691.5C 240.833,691.5 240.167,691.5 239.5,691.5C 240.138,683.401 240.805,675.401 241.5,667.5 Z"/></g>
<g><path style="opacity:1" fill="#765c55" d="M 217.5,683.5 C 219.552,684.053 219.885,685.053 218.5,686.5C 218.443,685.391 218.11,684.391 217.5,683.5 Z"/></g>
<g><path style="opacity:1" fill="#848484" d="M 227.5,682.5 C 227.097,685.486 226.097,688.152 224.5,690.5C 224.603,687.364 225.603,684.698 227.5,682.5 Z"/></g>
<g><path style="opacity:1" fill="#a1a1a1" d="M 187.5,688.5 C 188.833,689.167 189.833,690.167 190.5,691.5C 189.833,691.5 189.167,691.5 188.5,691.5C 187.89,690.609 187.557,689.609 187.5,688.5 Z"/></g>
</svg>
